<?xml version="1.0" standalone="no"?>
<!DOCTYPE svg PUBLIC "-//W3C//DTD SVG 1.1//EN" "http://www.w3.org/Graphics/SVG/1.1/DTD/svg11.dtd" >
<svg xmlns="http://www.w3.org/2000/svg">
<metadata>
This is a custom SVG webfont generated by Font Squirrel.
Copyright   : Copyright c Dustin Norlander 2003 This program is free software you can redistribute it andor modify it under the terms of the GNU General Public License as published by the Free Software Foundation either version 2 of the License or any later 
Designer    : Dustin Norlander
Foundry     : Dustin Norlander  This program is free software you can redistribute it andor modify it under the terms of the GNU General Public License as published by the Free Software Foundation either version of the License or any later
</metadata>
<defs>
<font id="webfontExYD4ueD" horiz-adv-x="1286" >
<font-face units-per-em="2048" ascent="1638" descent="-410" />
<missing-glyph horiz-adv-x="663" />
<glyph unicode=" "  horiz-adv-x="663" />
<glyph unicode="&#x09;" horiz-adv-x="663" />
<glyph unicode="&#xa0;" horiz-adv-x="663" />
<glyph unicode="!" horiz-adv-x="372" d="M68 1096h6q-4 35 -4 155v267h231v-666l-16 -160l-33 -338h-131l-35 338q-2 25 -12 182q-6 102 -6 222zM92 117q0 14 8.5 34.5t18.5 30.5q12 12 31 19q25 8 34 8q12 0 37 -8q16 -4 29 -19q14 -14 20 -30.5t6 -34.5q0 -16 -6 -35q-4 -16 -20 -31q-16 -16 -29 -20 q-18 -6 -37 -6q-16 0 -34 6q-14 6 -31 20q-12 12 -19 31q-8 25 -8 35z" />
<glyph unicode="&#x22;" horiz-adv-x="690" d="M414 1350q8 109 98 108q92 0 100 -108l-38 -287h-121zM76 1350q8 109 98 108q92 0 100 -108l-38 -287h-121z" />
<glyph unicode="#" horiz-adv-x="1069" d="M37 389v96h229q6 29 11.5 62t11.5 63l24 119q6 29 11.5 59.5l11.5 61.5q6 33 11 63.5t11 59.5h-233v96h254l17.5 91l19.5 106l39 192h100l-76 -389h228l38 197l19.5 101l17.5 91h101l-76 -389h231v-96h-250l-24 -123l-25 -119q-6 -31 -11 -61.5t-11 -59.5l-25 -125h258 v-96h-276l-17.5 -90l-19.5 -104l-39 -195h-100l75 389h-229l-17.5 -90l-19.5 -104l-39 -195h-98l76 389h-209zM365 485h229l24 125q6 29 11.5 59.5t11.5 59.5t11 59.5t12 61.5q6 33 11 63.5t11 59.5h-225z" />
<glyph unicode="$" horiz-adv-x="1032" d="M51 1098q0 176 131 280l-2 -2q109 90 277 103v172h98v-172q63 -4 127 -17q145 -29 188 -39v-231h-86l-43 117q-12 33 -88 55q-49 15 -98 18v-532q436 -135 436 -473q0 -180 -145 -289q-63 -49 -133 -76q-68 -27 -158 -32v-162h-98v159q-137 6 -232 56q-104 53 -174 147 v226h94l19 -111q16 -94 98 -149.5t180 -55.5h15v559q-195 63 -281 144q-125 112 -125 305zM274 1130q0 -86 48 -149q49 -63 135 -100v491q-70 -20 -123 -84q-31 -39 -45 -74q-15 -37 -15 -84zM555 106q39 10 76 35q33 20 63 56q33 39 47 84q16 49 17 94q0 82 -49 143 q-47 59 -154 100v-512z" />
<glyph unicode="%" horiz-adv-x="1015" d="M61 1229q0 252 228 252q227 0 227 -252t-227 -252q-228 0 -228 252zM166 0l582 1458h104l-582 -1458h-104zM219 1229q0 -147 68 -148q72 0 71.5 147.5t-71.5 147.5q-68 0 -68 -147zM500 233q0 250 225 250q227 0 227 -250q0 -252 -227 -251q-225 -1 -225 251zM655 233.5 q0 -147.5 68 -147.5q74 0 74 147.5t-74 147.5q-68 0 -68 -147.5z" />
<glyph unicode="&#x26;" horiz-adv-x="1314" d="M70 352q0 76 26.5 143.5t77.5 135.5q6 8 74 80q43 45 123 118q-170 242 -170 402q0 74 20.5 129t61.5 96q40 40 98 62q55 20 131 20q57 0 109 -22q47 -20 86 -66q66 -84 65 -207q0 -59 -16 -106q-23 -61 -47 -103q-12 -20 -50 -63l-75 -88l88 -131l90 -131l96 -134 l107 -143q45 53 71 109q29 57 41 114h-90v99h293v-99h-102q-16 -92 -54 -159q-45 -84 -102 -144l63 -82l70 -86h107v-96h-410v96h39q-2 2 -5 8.5t-5 8.5q-4 4 -13 16q-188 -150 -391 -149q-174 0 -287 98q-120 104 -120 274zM266 424q0 -59 25 -119q23 -57 61 -92 q83 -74 221 -74q111 0 234 70l-225 301q-84 117 -160 235q-74 -63 -115 -147q-41 -82 -41 -174zM418 1243q0 -100 110 -272q137 152 138 262q0 65 -31 110q-33 47 -94 48q-123 -1 -123 -148z" />
<glyph unicode="'" horiz-adv-x="358" d="M76 1350q8 109 98 108q92 0 100 -108l-38 -287h-121z" />
<glyph unicode="(" horiz-adv-x="630" d="M63 496q0 182 23 309q25 135 72 246q115 262 411 422v-105q-90 -74 -147 -174q-61 -109 -88 -225q-18 -68 -29 -199q-8 -104 -8 -272q0 -170 8 -275q10 -131 29 -198q59 -250 235 -400v-104q-297 160 -411 422q-47 109 -72 245q-23 124 -23 308z" />
<glyph unicode=")" horiz-adv-x="630" d="M61 -375q180 152 238 402q18 68 29 198q8 104 8 272.5t-8 272.5q-10 131 -29 199q-27 117 -88 225q-55 96 -150 174v105q299 -162 414 -422q45 -104 70 -246q25 -137 24.5 -309t-24.5 -308q-27 -145 -70 -245q-115 -260 -414 -422v104z" />
<glyph unicode="*" horiz-adv-x="1005" d="M72 1010q0 6 4 22.5t8 24.5q27 45 80 45q31 0 80 -23q20 -14 61 -47q29 -23 55 -59v2q25 -31 43 -47q6 -6 17.5 -16.5t17.5 -14.5q6 -6 11 -2q2 2 2 6q-6 41 -9 47q-2 12 -20 62q-14 33 -21 75q-8 53 -10 78q6 125 98.5 125t98.5 -125q-2 -25 -10 -78q-6 -39 -23 -75 q-12 -29 -18 -60q-2 -12 -9 -45l-2 -2q-2 -6 6 -10q4 -2 11 4q20 16 35 31q20 18 40 47q27 31 58 57q20 18 61 47q51 23 82 23q51 0 78 -45q4 -8 8 -24.5t4 -22.5q0 -57 -71 -101q-33 -18 -72 -30q-29 -10 -80 -21q-66 -10 -100 -27q-12 -3 -13 -12q0 -6 7 -6q4 -2 12 -5 t15 -5t16 -4q25 -6 61 -13l80 -18q31 -10 72 -33q33 -18 53 -47q18 -25 18 -53q0 -20 -12 -45q-25 -47 -78 -47q-33 0 -82 22q-12 8 -61 47q-27 23 -58 60h2q-14 18 -43 47q-14 14 -34 31q-6 6 -11 -2q-4 -10 -2 -15q6 -31 29 -98q14 -33 21 -78q8 -53 10 -78 q-6 -125 -99 -125q-92 4 -98 123q0 35 10 80q12 53 23 78q8 20 16 57q2 6 5.5 22.5t5.5 22.5q4 6 -5 11q-6 4 -10 0q-29 -20 -74 -78q-52 -61 -116 -105q-51 -23 -82 -22q-53 0 -78 47q-12 20 -12 45q0 55 69 100q27 16 74 33q37 12 80 18h-2q78 14 106 29q4 2 5 6q0 8 -5 8 q-37 16 -108 29q-47 10 -76 21q-45 14 -74 30q-71 48 -71 101z" />
<glyph unicode="+" horiz-adv-x="897" d="M14 518v98h400v369h98v-369h369v-98h-369v-397h-98v397h-400z" />
<glyph unicode="," horiz-adv-x="364" d="M51 121q0 18 12 51q8 23 27 41q20 20 41 29q27 10 51.5 10t50.5 -10q23 -8 43 -29q18 -18 27 -41q10 -27 10 -51h-37q4 0 9 -2q2 0 7 -4t7 -4q4 -2 12 -11q4 -4 4 -14q0 -29 -6 -72q-6 -39 -33 -90q-18 -37 -75 -82q-49 -41 -131 -55v70q111 61 116 112q0 20 -18 21 q-16 0 -41 10q-14 6 -37 29q-18 18 -27 41q-12 33 -12 51z" />
<glyph unicode="-" horiz-adv-x="870" d="M88 682v96h694v-96h-694z" />
<glyph unicode="." horiz-adv-x="399" d="M68 117q0 25 10 51q8 20 28 41q18 18 41 27q33 12 51.5 12t51.5 -12q23 -8 41 -27q20 -20 28 -41q10 -27 10.5 -51.5t-10.5 -50.5q-8 -23 -28.5 -43.5t-40.5 -28.5q-27 -10 -51.5 -10t-51.5 10q-20 8 -40.5 28.5t-28.5 43.5q-10 26 -10 51z" />
<glyph unicode="/" horiz-adv-x="692" d="M4 0l582 1458h104l-579 -1458h-107z" />
<glyph unicode="0" horiz-adv-x="1169" d="M74 733q0 145 22 275q20 113 68 219q61 125 163.5 190.5t237.5 65.5q154 0 262.5 -63.5t173.5 -182.5q45 -86 70 -215q25 -125 25 -293q0 -752 -531 -752q-279 0 -401 261q-90 192 -90 495zM307 721q0 -643 277 -643q279 0 278 651q0 115 -12 213q-10 86 -39 188 q-74 252 -227 252q-156 0 -228 -256q-49 -175 -49 -405z" />
<glyph unicode="1" horiz-adv-x="477" d="M43 0v96h86v1252q-29 -4 -45 -7l-23.5 -4t-17.5 -2v99l319 55v-1393h72v-96h-391z" />
<glyph unicode="2" horiz-adv-x="1040" d="M47 0v31q0 29 4 82q2 31 21 82q16 45 47 88q33 45 82 92q6 6 10 9t6 5t7 6t12 11l32 32l123 113l119 115q104 102 164 206q53 94 53 201q0 74 -14.5 125t-46.5 94q-31 40 -74 62q-45 23 -100.5 22.5t-100.5 -14.5q-51 -16 -88 -47q-41 -35 -70 -84q-33 -55 -47 -127 l-112 33q20 100 55 157q37 61 96 107q53 41 127 63q68 20 146 21q96 0 188 -27q90 -25 150 -74q61 -49 96 -124q33 -72 33 -175q0 -55 -15 -100q-16 -51 -39 -94q-20 -37 -61 -90q-31 -39 -74 -82q-53 -53 -114 -103l-119 -98l-62 -47q-53 -41 -59 -47q-94 -82 -119 -107 q-43 -43 -63 -84h272q45 0 136 1.5t138 1.5q88 0 113 161h109l-58 -397h-903z" />
<glyph unicode="3" horiz-adv-x="985" d="M80 0v283h96v-58q18 -68 79.5 -104.5t156.5 -42.5q49 0 110 20q57 18 90 62q72 84 72 231q0 96 -31 158q-35 70 -94 117q-25 22 -49 30q-27 10 -43 11h-119v100h115q41 10 72 35q35 29 59 73q47 82 47 181q0 114 -55 196h2q-61 88 -168 88q-127 0 -207 -176h-102 q49 139 141 207q51 37 98 53q49 16 115 17q180 0 293 -103q117 -109 116 -284q0 -117 -59 -211q-23 -37 -57 -72q-23 -23 -68 -51q53 -23 88 -55q45 -41 70 -78q74 -104 74 -242q0 -184 -136 -299q-129 -111 -313 -111q-37 0 -59 5q-34 6 -80 18q-80 20 -129 20 q-25 0 -37 -18h-88z" />
<glyph unicode="4" horiz-adv-x="972" d="M23 365v108l587 985h154v-903h156v-190h-156v-269h94v-96h-422v96h94v269h-507zM184 555h346v152v137v137v154z" />
<glyph unicode="5" horiz-adv-x="1009" d="M53 463h135q0 -4 -2 -13.5t-3 -16.5t-1 -13q-2 -12 -2 -33q0 -61 20.5 -110.5t59.5 -98.5q39 -43 90 -67q49 -25 107 -25q131 0 205 115q29 49 45 112q16 66 16 136q0 68 -18 131q-18 66 -48 116q-35 53 -90 88q-53 35 -112 35q-102 0 -215 -102l-107 6l68 735h714 l-61 -219h-565q-4 -31 -8 -96l-9 -90q-2 -16 -4 -45t-4 -45q0 -14 -3 -47t-5 -52q61 29 113 41q55 14 114 15q212 0 338 -129q129 -129 129 -342t-131 -345q-131 -127 -344 -127q-188 0 -307 144q-58 68 -86 153q-29 91 -29 189z" />
<glyph unicode="6" horiz-adv-x="1058" d="M74 516q0 809 286 930q90 37 199 37q182 0 287 -160l-82 -51q-61 109 -189 108q-25 0 -75 -34q-137 -94 -174 -474q111 51 215 52q205 0 336 -131q133 -133 133 -336q0 -109 -33 -195q-33 -88 -94 -151q-66 -63 -152 -99q-84 -35 -192 -35q-227 0 -355 160 q-110 141 -110 379zM305 508q0 -66 14 -143q12 -72 37 -132q33 -74 80 -114.5t103 -40.5q31 0 69 24q166 98 166 344q0 139 -72 252q-80 123 -206 123q-94 0 -179 -63q0 -6 -1 -24.5t-1 -28.5q0 -18 -4 -68q-2 -43 -4 -76q0 -10 -1 -28.5t-1 -24.5z" />
<glyph unicode="7" horiz-adv-x="940" d="M-8 1079l39 379h884v-98q-479 -758 -469 -1360h-219q23 184 64 342q41 156 108 322q55 127 146 292q76 141 176 283h-514q-84 0 -109 -160h-106z" />
<glyph unicode="8" horiz-adv-x="1071" d="M37 360q0 156 117 267v-2q43 43 211 147q-70 51 -103 82q-49 45 -74 76q-43 55 -71 121q-27 61 -27 127q0 303 463 303q76 0 147 -17q61 -14 125 -47q145 -80 146 -231q0 -121 -123 -225q-57 -45 -88 -64q-57 -35 -101 -51q371 -246 371 -496q0 -174 -158 -280 q-143 -96 -315 -97q-213 0 -348 80q-172 101 -172 307zM264 389q0 -119 72 -215q74 -102 188 -102q106 0 185 84q80 80 79 186q0 108 -116 215q-34 31 -86 68q-74 51 -123 82q-199 -150 -199 -318zM326 1192q0 -78 88 -160h-2l12 -8t12 -10t13.5 -10.5t13.5 -10.5 q12 -10 24.5 -19t24.5 -20l49 -41q174 131 174 273q0 82 -59.5 139t-143.5 57q-83 0 -147 -55q-25 -23 -43 -61q-16 -37 -16 -74z" />
<glyph unicode="9" horiz-adv-x="1048" d="M47 1010q0 158 88 290q94 137 252 168q59 12 133 13q109 0 195 -37t147 -105q55 -66 90 -155q31 -82 31 -197q0 -721 -332 -909q-45 -27 -96 -43q-57 -18 -119 -31q-18 -4 -55 -8l-53 -6q-10 -2 -27.5 -5t-38.5 -5q-37 -4 -63 -9l-17 97q119 10 207 30q256 61 332 520 q-31 -10 -115 -26q-41 -8 -74 -8q-109 0 -190 26q-86 29 -149 76q-70 63 -107 139q-39 81 -39 185zM283 999q0 -68 16 -116q16 -51 51 -103q35 -43 86 -71.5t107 -28.5q104 0 194 61q8 100 11 131q2 41 2 111q0 143 -52 258q-65 141 -178 141q-109 0 -178 -137 q-29 -55 -45 -119q-14 -57 -14 -127z" />
<glyph unicode=":" horiz-adv-x="335" d="M68 117q0 25 10 51q8 20 28 41q18 18 41 27q33 12 51.5 12t51.5 -12q23 -8 41 -27q20 -20 28 -41q10 -27 10.5 -51.5t-10.5 -50.5q-8 -23 -28.5 -43.5t-40.5 -28.5q-27 -10 -51.5 -10t-51.5 10q-20 8 -40.5 28.5t-28.5 43.5q-10 26 -10 51zM70 870q0 25 10 52 q8 20 28.5 40.5t41.5 28.5q27 10 51 10t51 -10q20 -8 40.5 -28.5t29.5 -40.5q10 -27 10 -51.5t-10 -51.5q-8 -20 -29 -40.5t-41 -28.5q-27 -10 -51.5 -10.5t-50.5 10.5q-20 8 -41 28.5t-29 40.5q-10 26 -10 51z" />
<glyph unicode=";" horiz-adv-x="348" d="M43 868q0 25 10 52q8 23 27 41q20 20 43 28q27 10 49 10q25 0 51 -10q23 -8 43 -28q18 -18 27 -41q10 -27 10 -51.5t-10 -51t-26.5 -43t-43.5 -26.5q-33 -12 -51 -13q-16 0 -49 13q-27 10 -43.5 26.5t-26.5 42.5t-10 51zM43 121q0 18 12 51q8 23 27 41q20 20 43 29 q27 10 49 10q25 0 51 -10q23 -8 43 -29q18 -18 27 -41q10 -27 10 -51h-37q4 0 8 -2q2 0 7.5 -4t7.5 -4q4 -2 12 -11q4 -4 4 -14q0 -29 -6 -72q-6 -39 -33 -90q-18 -37 -75 -82q-49 -41 -132 -55v70q111 61 117 112q0 20 -18 21q-16 0 -41 10q-20 8 -37 29q-20 25 -27 41 q-12 33 -12 51z" />
<glyph unicode="&#x3c;" horiz-adv-x="897" d="M12 692v49l797 492v-178l-547 -336l275 -168l272 -166v-176l-211 127l-209 127l-196 121z" />
<glyph unicode="=" horiz-adv-x="813" d="M37 510v96h739v-96h-739zM37 973v96h739v-96h-739z" />
<glyph unicode="&#x3e;" horiz-adv-x="894" d="M88 213v176l539 328l-271 166l-268 166v178l797 -490v-41z" />
<glyph unicode="?" horiz-adv-x="980" d="M51 1190q-14 156 150 233q125 59 274 60q76 0 154 -17q57 -12 139 -49q178 -80 178 -229q0 -33 -22 -82q-25 -51 -64 -96q-59 -68 -102 -107q-33 -31 -135 -110q-137 -104 -142 -275v-102v-105h-96v279q0 141 84 244l164 170q41 41 61 88q18 43 19 88q0 78 -74 143 q-33 27 -76 43t-84 16q-47 0 -80 -8q-37 -8 -65 -28h2q-102 -61 -103 -136q0 -23 11 -47q14 -43 82 -159l-197 -5q-37 74 -53 115q-23 56 -25 76zM350 117q0 14 8.5 34.5t18.5 30.5q12 12 31 19q25 8 34 8q39 0 66 -26.5t27 -65.5q0 -16 -7 -35q-4 -16 -20 -31 q-14 -14 -29 -20q-16 -6 -37 -6q-16 0 -34 6q-14 6 -31 20q-12 12 -19 31q-8 25 -8 35z" />
<glyph unicode="@" horiz-adv-x="1480" d="M47 571q18 334 260 594v-2q246 272 576 273q119 0 217 -43q102 -45 174 -123q68 -80 104 -183q37 -100 37 -223q0 -98 -29 -194q-29 -98 -81 -174q-63 -90 -145.5 -139.5t-180.5 -49.5q-104 0 -125 64q-55 -31 -102 -45q-55 -16 -103 -17q-129 0 -213 92q-37 39 -59 99 q-20 53 -21 118q0 96 33 191q31 90 88 156q63 70 147.5 108.5t186.5 38.5q84 0 147 -41v4v2h226l-117 -622v2q-2 -27 4 -27q84 0 162 172l-2 -2q31 86 41 148q14 80 14 126q0 100 -26 179q-28 80 -86 147q-119 143 -306 143q-252 0 -458 -256q-98 -123 -148 -247 q-49 -127 -49 -256q0 -94 29 -185q29 -88 82 -153q59 -68 139 -109q78 -39 174 -39q121 0 197 35q74 33 172 137l69 -65q-117 -123 -213 -164q-98 -41 -248 -41q-244 0 -413 164q-72 78 -113 180q-37 96 -41 227zM592 621q0 -66 29 -134q35 -72 84 -71q74 0 155 80l78 462 q-43 55 -107 56q-49 0 -94 -39q-47 -41 -84 -105q-29 -59 -45 -125q-16 -69 -16 -124z" />
<glyph unicode="A" horiz-adv-x="1245" d="M33 0v102h106l211 678l213 678h111l436 -1356h104v-102h-434v102h74l-31 97l-28 94l-16.5 47.5t-14.5 46.5l-31 96h-354l-31 -96l-29 -94l-28 -92l-31 -99h76v-102h-303zM412 588h288l-73 225l-72 225l-72 -225z" />
<glyph unicode="B" horiz-adv-x="1183" d="M68 0v102h102v1254h-102v102h450q92 0 156 -6q78 -8 110 -18q66 -20 121.5 -65.5t83.5 -106.5q20 -41 30.5 -88.5t10.5 -90.5q0 -96 -41 -174q-39 -74 -110 -127q102 -41 168 -131q43 -55 59 -112q18 -61 18 -129q0 -193 -131 -306q-123 -104 -317 -104h-608zM420 102 h168q106 0 149 25q57 33 99 123q18 33 28 80q8 35 8 80q0 82 -41 168q-43 88 -112 118q-23 8 -49 11q-41 4 -72 4h-178v-609zM420 807h162q92 0 145 92q51 82 51 186q0 182 -121 256l2 -2q-33 16 -116 17h-123v-549z" />
<glyph unicode="C" horiz-adv-x="1138" d="M63 741q0 102 10.5 198.5t28.5 152.5q58 194 222 294q145 94 360 95q227 0 375 -66l39 -258h-121q2 109 -74 164t-229 57q-123 -12 -207 -94q-82 -80 -123 -229q-16 -76 -20 -135q-8 -106 -9 -179q0 -151 19 -264q18 -111 49 -182q55 -104 129 -159.5t164 -55.5h8 q277 0 301 221h119l-41 -258q-29 -14 -82 -29q-61 -16 -107 -22q-109 -16 -186 -17q-209 0 -358 93q-160 100 -226 301q-23 72 -30 161q-11 102 -11 211z" />
<glyph unicode="D" horiz-adv-x="1261" d="M70 0v102h100v1254h-100v102h567q168 0 278 -55q121 -59 187 -162q49 -80 78 -215q27 -125 26 -297q0 -168 -26 -295q-28 -132 -74 -215q-68 -102 -184 -162q-115 -57 -277 -57h-575zM422 102h162q129 0 180 35q195 123 194 600q0 461 -186 578q-33 20 -84 31 q-55 10 -115 10h-151v-1254z" />
<glyph unicode="E" horiz-adv-x="1132" d="M66 0v102h102v1254h-102v102h976l37 -264h-106q-25 162 -115 162h-440v-574h301v101h117v-303h-117v100h-301v-578h477q86 0 111 164h108l-39 -266h-1009z" />
<glyph unicode="F" horiz-adv-x="1064" d="M66 1356v102h972l37 -264h-106q-25 162 -115 162h-436v-574h301v101h117v-303h-117v100h-301v-578h98v-102h-450v102h100v1254h-100z" />
<glyph unicode="G" horiz-adv-x="1294" d="M72 721q0 356 116 528v-2q131 233 492 236q231 0 401 -140l33 -258h-119q0 117 -82 209q-82 86 -233 86h-6q-165 0 -254 -166q-90 -168 -96 -489q6 -319 92 -485q85 -164 244 -164h6q70 2 131 28q63 27 100 70v381h-143v107h477v-105h-88v-338q-164 -244 -458 -244h-21 q-346 2 -482 234v-2q-110 172 -110 514z" />
<glyph unicode="H" horiz-adv-x="1343" d="M72 0v102h100v1254h-100v102h452v-102h-100v-574h496v574h-99v102h453v-102h-103v-1254h103v-102h-453v102h99v578h-496v-578h100v-102h-452z" />
<glyph unicode="I" horiz-adv-x="557" d="M31 0v102h127v1254h-127v102h493v-102h-114v-1254h114v-102h-493z" />
<glyph unicode="J" horiz-adv-x="614" d="M-10 -311q195 6 194 444v1223h-106v102h465v-102h-107v-1227q-4 -240 -88 -373q-90 -141 -315 -164z" />
<glyph unicode="K" horiz-adv-x="1392" d="M72 0v102h100v1254h-100v102h452v-102h-100v-473l135 121l131 114l131 117l140 121h-17v102h295v-102h-127l-285 -254l-288 -256l331 -371l332 -373h115v-102h-467v102h35l-119 131l-113 123l-112 125l-117 133v-512h100v-102h-452z" />
<glyph unicode="L" horiz-adv-x="1138" d="M66 1356v102h450v-102h-96v-1254h477q90 0 115 164h106l-37 -266h-1013v102h100v1254h-102z" />
<glyph unicode="M" horiz-adv-x="1540" d="M78 0v102h100v1254h-100v102h348l344 -1046l176 524l174 522h344v-102h-100v-1254h100v-102h-450v102h96v951l-84 -252l-92 -277l-92 -274l-84 -250h-111l-352 1065v-963h100v-102h-317z" />
<glyph unicode="N" horiz-adv-x="1253" d="M70 0v102h100v1254h-100v102h323l578 -991v889h-101v102h318v-102h-101v-1356h-137l-661 1153v-1051h98v-102h-317z" />
<glyph unicode="O" horiz-adv-x="1261" d="M82 729q0 754 561 754q565 0 565 -754t-563 -754t-563 754zM334 729q0 -649 311 -649q309 0 309 649t-311 649q-309 0 -309 -649z" />
<glyph unicode="P" horiz-adv-x="1198" d="M70 0v102h100v1254h-100v102h612q92 0 172 -24q88 -27 147 -70q68 -53 109 -129t41 -166q0 -84 -37 -157.5t-98 -129.5q-66 -53 -139 -80q-80 -29 -162 -28h-291v-572h106v-102h-460zM424 780h252q41 0 80 25q43 27 75 74q27 41 48 94q18 49 18 94q0 113 -68 203 q-68 88 -178 88l-227 -2v-576z" />
<glyph unicode="Q" horiz-adv-x="1263" d="M74 729q0 754 561 754q565 0 565 -754q0 -285 -78 -463q-76 -172 -241 -243q47 -23 147 -109q27 -23 57 -45q29 -20 54 -31q20 -8 135 -14q8 0 13 -1t13.5 -2t20.5 -1q29 -2 47 -2l2 -37q-166 -51 -270 -51q-111 0 -178 37q-18 10 -41 30l-60 56q-25 25 -59 49 q-20 14 -62 35l-65 22q-18 6 -90 23h2q-473 59 -473 747zM326 729q0 -649 311 -649q309 0 309 649t-311 649q-309 0 -309 -649z" />
<glyph unicode="R" horiz-adv-x="1323" d="M68 0v102h100v1254h-100v102h612q94 0 174 -24q84 -27 145 -70q71 -55 111 -129q39 -72 39 -166q0 -70 -27 -131q-29 -66 -75 -119q-39 -41 -99 -78q-61 -39 -114 -51q39 -133 129 -278q90 -147 231 -310h106v-102h-323q-113 145 -219 330q-96 164 -170 344h-166v-572 h106v-102h-460zM422 780h252q39 0 80 25q43 27 75 74q27 41 48 94q18 49 18 94q0 113 -68 203q-68 88 -178 88l-227 -2v-576z" />
<glyph unicode="S" horiz-adv-x="1075" d="M66 1096q0 184 143 290q127 96 315 97q55 0 157.5 -16.5t219.5 -45.5v-233h-104l-43 117q-8 16 -33 30q-22 12 -55 25q-14 4 -62 14q-20 4 -61 4q-94 0 -164 -75v2q-72 -78 -72 -177q0 -123 82 -186q16 -14 78 -45q33 -16 125 -47q98 -31 186 -82q68 -39 129 -104 q61 -68 86 -132q29 -74 29 -153q0 -193 -166 -303q-71 -49 -154 -74q-84 -25 -182 -25q-293 0 -452 207v228h112l19 -115q12 -92 94 -147q78 -53 176 -54q129 0 213 76q88 76 88 205q0 143 -172 225l-84 37q-23 8 -43 18.5l-40.5 20.5l-43 20.5t-43.5 18.5l-84 37 q-194 121 -194 342z" />
<glyph unicode="T" horiz-adv-x="1128" d="M6 1194l37 264h1053l37 -264h-109q-25 162 -113 162h-217v-1254h101v-102h-455v102h104v1254h-217q-88 0 -112 -162h-109z" />
<glyph unicode="U" horiz-adv-x="1282" d="M43 1356v102h453v-102h-101v-758q0 -254 39 -350q61 -162 260 -162q299 0 299 520v750h-98v102h328v-102h-103v-754q0 -621 -475 -620q-283 0 -401 182q-98 152 -99 440v752h-102z" />
<glyph unicode="V" horiz-adv-x="1245" d="M31 1356v102h434v-102h-74l301 -936l74 235l72 232l73 233l74 236h-76v102h305v-100h-106l-213 -680l-213 -678h-111l-436 1356h-104z" />
<glyph unicode="W" horiz-adv-x="1744" d="M51 1356v102h434v-102h-73l149 -469l152 -469l51 162l22.5 76.5l26.5 86.5l-98 306l-99 307h-106v102h725v-100h-107l-63 -203l-64 -203l8.5 -24.5t17.5 -56t24 -74.5l120 -379l74 235l74 234l72 231l73 238h-73v102h303v-100h-107l-213 -680l-211 -678h-110l-179 553 l-86 -279l-83 -274h-111l-438 1356h-105zM872 1356l68 -203l33 100l33 103h-134z" />
<glyph unicode="X" horiz-adv-x="1343" d="M70 0v104h114l181 312l180 313l-183 315l-180 314h-18h-23q-2 0 -10 -1t-10 -1h-21h-18h-12v102h426v-102h-58l117 -203l119 -203l59 103l58 98l57 100l59 105h-47v102h289v-102h-109l-149 -258l-152 -260l213 -367l211 -369h113v-102h-422v102h51l-147 256l-148 258 l-75 -131l-74 -125l-74 -127l-76 -131h51v-102h-292z" />
<glyph unicode="Y" horiz-adv-x="1282" d="M35 1356v102h450v-102h-51l135 -252l138 -258l75 129l74 125l74 125l76 131h-52v102h293v-100h-110l-187 -320l-184 -317v-619h96v-102h-452v102h102v312v311l-184 315l-181 316h-112z" />
<glyph unicode="Z" horiz-adv-x="1177" d="M57 1194l37 264h1000v-63l-756 -1293h582q88 0 112 164h109l-39 -266h-1043v74l748 1282h-528q-88 0 -113 -162h-109z" />
<glyph unicode="[" horiz-adv-x="573" d="M86 -469v1927h477v-96h-246v-1733h246v-98h-477z" />
<glyph unicode="\" horiz-adv-x="692" d="M4 1458h105l581 -1458h-106z" />
<glyph unicode="]" horiz-adv-x="589" d="M10 -371h262v1733h-262v98h494v-1927h-494v96z" />
<glyph unicode="^" horiz-adv-x="1021" d="M80 762l397 696h101l399 -696h-127l-322 563l-323 -563h-125z" />
<glyph unicode="_" horiz-adv-x="976" d="M-2 -90h985v-98h-985v98z" />
<glyph unicode="`" horiz-adv-x="448" d="M0 1409l244 18l176 -292l-152 -60z" />
<glyph unicode="a" horiz-adv-x="1085" d="M74 242q0 168 127 233q66 33 258 72q157 31 215 86q2 4 3 11t1 11q2 8 2 27q0 233 -246 233q-160 0 -180 -204h-96v243q125 29 198.5 43.5t118.5 14.5q229 0 324 -70q113 -86 112 -309v-420q0 -117 2 -117h117v-96h-307q-33 51 -41 125q-18 -23 -53 -51q-41 -33 -64 -45 q-96 -53 -203 -54q-125 0 -206 66q-82 70 -82 201zM305 248q0 -70 25 -119q27 -57 84 -57q74 0 157 80q45 41 68 71.5t41 77.5v225q-33 -14 -66 -24l-90 -27h2q-68 -23 -94 -33q-37 -14 -61 -34q-66 -54 -66 -160z" />
<glyph unicode="b" horiz-adv-x="1073" d="M68 0v96h102v1266h-102v96h333v-510q51 31 103 45q59 16 123 17q408 0 407 -516q0 -514 -420 -514q-68 0 -116 14q-55 16 -99 45v-39h-331zM399 170q10 -10 37 -35q14 -12 47 -33q51 -29 103 -28q14 0 20 2l25 8h-2q174 72 174 403q0 303 -144 406h3q-27 20 -60 20 q-43 0 -96 -26q-43 -23 -105 -76z" />
<glyph unicode="c" horiz-adv-x="952" d="M70 500q0 512 440 512q40 0 123 -25q70 -20 112 -20q20 0 37 18h88v-280h-98v53q-41 78 -96 119q-51 39 -115 38q-141 0 -209 -143q-51 -109 -51 -285q0 -76 14 -135q14 -63 41 -125q68 -145 179 -145q188 0 274 213l78 -51q-16 -63 -53 -113q-41 -55 -97 -88 q-52 -31 -110 -49q-51 -16 -117 -17q-121 0 -207 39q-84 37 -141 111q-43 59 -68 158q-24 96 -24 215z" />
<glyph unicode="d" horiz-adv-x="1112" d="M63 494q0 516 408 516q133 0 225 -62v207v207h-100v96h332v-1362h102v-96h-332v39q-88 -59 -215 -59q-420 0 -420 514zM297 487q0 -332 172 -403q4 -2 23 -8q6 -2 20 -2q51 0 102 28q53 33 84 68l-2 641q-63 55 -102 76q-53 27 -98 26q-31 0 -58 -20q-141 -103 -141 -406 z" />
<glyph unicode="e" horiz-adv-x="1028" d="M72 518q0 217 108 350q119 143 336 144q102 0 189 -35q78 -31 143 -105q109 -127 121 -360h-668v-33v-18q0 -375 270 -375q98 0 179 47q35 20 71.5 65.5t57.5 92.5l86 -53q-29 -72 -74 -119q-47 -49 -109 -84q-57 -29 -116 -43q-70 -16 -131 -17q-117 0 -207 43 q-88 43 -150 119q-52 71 -80 166q-26 92 -26 215zM303 610h430q-8 147 -63.5 223t-153.5 76q-115 0 -168 -102q-16 -29 -31 -86q-10 -45 -14 -111z" />
<glyph unicode="f" horiz-adv-x="673" d="M39 889v96h129v176q0 305 264 324q55 0 100 -12q55 -14 86 -33q6 0 13 6q8 8 12 16h90v-256h-96v56q-18 63 -49 90q-30 27 -72 27q-4 0 -8 -1q-102 -6 -109 -151v-121v-121h215v-96h-215q0 -68 1 -200t1 -195v-398h138v-96h-471v96h100v793h-129z" />
<glyph unicode="g" horiz-adv-x="1040" d="M8 -254q0 166 279 270q-6 2 -11 2q-6 0 -8 2q-70 25 -69 76q0 59 180 111l57 14q-57 8 -112 35q-43 20 -97 59q-59 51 -98 129q-37 74 -37 164q0 186 123 293h-2q113 106 299 107q45 0 63 -2q33 -4 49.5 -8.5t22.5 -6.5l19 -6h299v-96h-131q104 -106 104 -275 q0 -61 -14 -110q-16 -53 -45 -101q-25 -45 -68 -83.5t-88 -59.5q-58 -71 -184 -117q-51 -18 -129 -49v-2q6 -6 61 -20l84 -19q10 -2 28.5 -5t26.5 -5t26.5 -5t27.5 -5q131 -31 200 -80q98 -63 99 -174q0 -248 -477.5 -248t-477.5 215zM209 -236q0 -135 231 -135 q143 0 199 21q98 31 98 131q0 43 -26 82q-27 41 -72 67q-45 25 -90 37q-49 12 -100 13q-27 0 -91 -35q-149 -77 -149 -181zM326 606q0 -100 47 -190q53 -98 141 -99q92 0 145 99q45 84 46 196q0 104 -50 195q-53 104 -143 104t-141 -104q-45 -88 -45 -201z" />
<glyph unicode="h" horiz-adv-x="1177" d="M76 0v96h100q0 106 1 318.5t1 314.5v633h-100v96h334v-526q57 41 110 59q55 18 121 19q195 0 299 -119q100 -117 100 -307v-488h101v-96h-434v96h100v482q0 334 -199 333q-49 0 -100 -28.5t-98 -81.5v-705h100v-96h-436z" />
<glyph unicode="i" horiz-adv-x="585" d="M111 39v18h102v871h-102v20h258v-891h98v-18h-356zM160 1315q0 25 10 51q8 20 28.5 40.5t41.5 29.5q27 10 51 10t51 -10q20 -8 40.5 -29t29.5 -41q10 -27 10 -51.5t-10 -50.5q-8 -23 -29 -43q-18 -18 -41 -27q-27 -10 -51.5 -10t-50.5 10q-23 8 -41 27q-20 20 -29 43 q-10 26 -10 51z" />
<glyph unicode="j" horiz-adv-x="436" d="M23 -410q150 37 149 482v856h-100v20h256v-880q0 -215 -76 -344q-74 -125 -227 -150q0 12 -2 16zM119 1317q0 23 10 49q8 23 28.5 43.5t41.5 28.5q27 10 51 10t51 -10q20 -8 40.5 -28.5t29.5 -43.5q10 -27 10 -49q0 -25 -10 -51q-8 -23 -29 -43q-18 -18 -41 -27 q-27 -10 -51.5 -10t-50.5 10q-23 8 -41 27q-20 20 -29 43q-10 26 -10 51z" />
<glyph unicode="k" horiz-adv-x="1003" d="M72 1362v96h336v-827l59 63l57 64l60 63l63 68h-16v96h260v-96h-109l-135 -148l-135 -147l193 -248l192 -250h109v-96h-410v96h31l-58 74q-45 59 -51 67.5t-51 67.5l-59 78v-287h104v-96h-438v96h100v1266h-102z" />
<glyph unicode="l" horiz-adv-x="514" d="M43 0v96h100v1266h-100v96h334v-1362h100v-96h-434z" />
<glyph unicode="m" horiz-adv-x="1687" d="M86 0v96h100v793h-100v96h334v-39q43 33 88 47q53 16 102 17q95 0 172 -31q76 -31 127 -88q82 119 248 119q350 0 350 -424v-490h101v-96h-434v96h100v539q0 285 -152 285q-20 0 -49 -13q-23 -10 -55 -39q-51 -49 -55 -108v-332v-332h102v-96h-434v96h98v539 q0 285 -151 285q-40 0 -99 -50q-59 -47 -59 -86v-688h100v-96h-434z" />
<glyph unicode="n" horiz-adv-x="1236" d="M86 0v96h100v793h-100v96h334v-53q49 35 110 57q55 20 123 21q195 0 299 -119q100 -117 101 -307v-488h100v-96h-434v96h100v482q0 334 -198 333q-106 0 -201 -112v-703h100v-96h-434z" />
<glyph unicode="o" horiz-adv-x="1079" d="M74 494q0 516 491 516q442 0 443 -516q0 -272 -119 -396q-117 -119 -387 -118q-428 0 -428 514zM307 487q0 -164 45 -268q61 -143 189 -143q65 0 110 37q47 39 78 104q23 59 35 123q10 57 10 145q0 166 -45 277q-61 150 -186 149q-68 0 -113 -39q-49 -43 -78 -106 q-18 -49 -33 -127q-12 -70 -12 -152z" />
<glyph unicode="p" horiz-adv-x="1075" d="M70 -377h100v1266h-100v96h331v-37q90 59 215 60q420 0 420 -514q0 -516 -409 -517q-135 0 -226 62q0 -37 1 -105.5t1 -101.5v-209h99v-96h-432v96zM401 815v-641q106 -100 203 -100q31 0 58 20q141 102 141 404q0 335 -172 405q-4 2 -23 8q-6 2 -22 2q-47 0 -103 -30 q-45 -25 -82 -68z" />
<glyph unicode="q" horiz-adv-x="1073" d="M41 494q0 514 420 514q127 0 215 -60v37h229v-1362h103v-96h-433v96h99v109v98q0 16 1 49t1 51v109q-92 -61 -225 -62q-410 1 -410 517zM274 498q0 -299 144 -404q27 -20 55 -20q96 0 203 100v641q-31 41 -82 68q-53 31 -102 30q-16 0 -23 -2q-18 -6 -23 -8 q-172 -70 -172 -405z" />
<glyph unicode="r" horiz-adv-x="917" d="M68 0v96h100v793h-100v96h329v-41q88 59 207 60q174 0 295 -107l-141 -164q-66 170 -176.5 170t-184.5 -94q0 -63 1 -182t1 -174v-357h103v-96h-434z" />
<glyph unicode="s" horiz-adv-x="903" d="M94 731q0 70 33 121q37 57 94 94q53 31 113 49q61 18 131 19q8 0 49 -8q33 -6 66 -19q14 -4 59 -14q28 -6 43 -6q23 0 39 18h86v-280h-96v53q-80 156 -211 155q-78 0 -125 -45q-49 -45 -49 -118q0 -66 59 -99v2q14 -8 72 -30q100 -39 153 -58q223 -86 224 -309 q0 -74 -39 -131t-105 -94q-49 -23 -121 -39q-66 -14 -145 -15q-29 0 -47 5q-28 6 -62 18q-27 10 -55 14q-33 4 -39 4q-25 0 -37 -18h-88v283h99v-54q14 -27 43 -67q18 -27 43 -47q55 -43 135 -43t137 47q57 49 57 125q0 41 -32 75q-33 37 -89 64l-63 27q-31 12 -61 26 q-33 12 -64 27l-61 29q-146 89 -146 239z" />
<glyph unicode="t" horiz-adv-x="645" d="M43 889v96q123 0 209 96q33 35 63 95q27 49 50 118h63v-309h170v-96h-170v-651q0 -88 31 -113q23 -18 139 -29v-96q-113 4 -162 8q-55 6 -96 17q-143 45 -143 188v676h-154z" />
<glyph unicode="u" horiz-adv-x="1198" d="M63 889v96h334v-575q0 -334 199 -334q106 0 201 112v701h-103v96h334v-889h102v-96h-333v53q-43 -31 -111 -55q-55 -20 -125 -21q-195 0 -299 119q-98 111 -98 307v486h-101z" />
<glyph unicode="v" horiz-adv-x="1069" d="M37 889v96h414v-96h-68l55 -144l54 -139l53 -137l55 -147l55 143l54 139l55 139l55 146h-65v96h278v-96h-106l-172 -445l-172 -444h-93l-346 889h-106z" />
<glyph unicode="w" horiz-adv-x="1611" d="M20 889v96h414v-96h-69q14 -39 29.5 -75t27.5 -69l53 -139l53 -137l58 -147l80 210l79 209q-4 8 -14 35t-14 39t-14.5 39t-14.5 35h-106v96h434v-96h-88l55 -144l53 -139l54 -137l25 -65.5l32 -81.5l53 143l55 139l54 139l57 146h-68v96h279v-96h-107l-172 -445 l-172 -444h-92l-235 606l-117 -303l-117 -303h-92l-346 889h-107z" />
<glyph unicode="x" horiz-adv-x="1105" d="M70 889v96h424v-96h-50l64 -101l88 -141l45 62l43 59q10 14 21.5 28.5t21.5 28.5l47 64h-37v96h271v-94h-111l-125 -168l-123 -168l144 -229l141 -230h104v-96h-460v96h81l-38 66q-10 14 -20.5 30.5t-18.5 30.5l-39 64l-18.5 31.5t-22.5 35.5l-24.5 -31.5l-24.5 -31.5 l-45 -64l-46 -61l-49 -70h41v-96h-270v96h109l126 174l127 174l-137 222l-137 223h-102z" />
<glyph unicode="y" horiz-adv-x="1030" d="M49 889v96h412v-96h-70l51 -135l52 -129l49 -129q12 -35 26.5 -69l28.5 -69l49 134l51 131l50 131q12 35 26 68.5l27 66.5h-72v96h281v-96h-107l-215 -572l-217 -571q-82 -219 -248 -219q-35 0 -73 8l2 186q74 -37 110 -36q78 0 121 100l47 131l24.5 66.5l24.5 64.5 l-162 422l-163 420h-105z" />
<glyph unicode="z" horiz-adv-x="1036" d="M55 752l54 233h825v-55l-578 -834h355q150 2 192 140h96l-53 -236h-860v63l571 826h-303q-158 0 -202 -137h-97z" />
<glyph unicode="{" horiz-adv-x="595" d="M27 440v97q133 4 133 168v407q0 193 151 285q102 61 250 61v-94q-106 -6 -143 -72v2q-31 -58 -31 -172v-51q0 -16 4 -74q2 -29 2 -75q0 -12 1 -31t1 -25q0 -160 -43 -245q-47 -96 -143 -136q70 -33 115 -88q68 -82 67 -194v-383q0 -98 29 -146q37 -57 141 -59v-98h-29 q-119 0 -221 63q-152 92 -151 285v407q0 158 -133 168z" />
<glyph unicode="|" horiz-adv-x="266" d="M80 -469v1927h98v-1927h-98z" />
<glyph unicode="}" horiz-adv-x="595" d="M35 -385q104 2 141 59q29 47 29 146v383q0 61 16 104q18 51 49 90q51 61 119 90q-33 12 -65 37q-20 14 -54 56q-66 82 -65 194v383q0 98 -29 146q-39 59 -141 61v94h28q63 0 115 -14q49 -14 107 -47q152 -92 151 -285v-407q0 -164 133 -168v-97q-133 -10 -133 -168v-407 q0 -193 -151 -285q-102 -63 -250 -63v98z" />
<glyph unicode="~" horiz-adv-x="1187" d="M74 981q74 276 319 276q74 0 232 -83q147 -78 200 -78q111 0 199 155l92 -43q-86 -274 -321 -274q-74 0 -232 84q-150 78 -198 78q-63 0 -111 -41q-27 -27 -88 -115z" />
<glyph unicode="&#xa1;" horiz-adv-x="372" d="M70 199l16 159l35 336h131l33 -336q6 -63 14 -184q4 -68 4 -219h-6q4 -35 4 -158v-266h-231v668zM70 815v236h231v-236h-231z" />
<glyph unicode="&#xa2;" horiz-adv-x="886" d="M45 500q0 512 440 512q16 0 58 -4q16 -2 63 -15l45 115l23.5 59.5l21.5 53.5h105l-101 -250q20 -4 23 -4h14q8 0 21 18h88v-280h-96v53q-25 41 -43 65q-25 31 -45 49l-144 -358l-141 -356q31 -35 65 -56q37 -20 70 -20q186 0 272 213l78 -51q-16 -63 -53 -113 q-43 -57 -94 -88q-52 -31 -111 -49q-51 -16 -119 -17q-59 0 -88 5q-41 6 -82 18l-24 -59.5t-25 -59.5l-47 -119h-104l110 279q-180 109 -180 459zM279 487q0 -66 8 -112q12 -63 28 -107l129 322l129 323q-14 2 -41 2q-141 0 -204 -145q-49 -111 -49 -283z" />
<glyph unicode="&#xa3;" horiz-adv-x="1124" d="M49 86q86 76 123 117q45 51 70 102q53 90 53 178q0 12 -4 45q-2 10 -10 60h-160v96h129l-17 45q-4 12 -9 22.5t-9 20.5q-14 41 -22 59l-23 58q-51 145 -51 244q0 186 147 278q127 76 314 76q182 0 272 -76q96 -82 115 -281l-234 -4q-18 260 -174 260q-90 0 -151 -79 q-55 -78 -56 -177q0 -41 13 -100q14 -66 36 -129l43 -108l43 -109h156v-96h-129q12 -61 12 -115q0 -66 -34 -145q-35 -78 -101 -162q4 0 8 1t7 1h16q63 0 176 -47q68 -27 86 -33q37 -10 49 -10q33 0 111 72l229 -29q-164 -139 -311 -139q-29 0 -76 10q-45 10 -102 31 q-53 20 -97 30q-45 10 -65 10q-80 -2 -240 -94z" />
<glyph unicode="&#xa4;" horiz-adv-x="1165" d="M66 1147l71 65l180 -182q111 104 262.5 104.5t268.5 -104.5l182 184l72 -65l-193 -193q63 -94 64 -211q0 -156 -111 -268l45 -45l47 -47l47 -47q6 -6 17.5 -18.5t23.5 -22.5l-69 -66l-187 185q-51 -31 -100 -45.5t-106 -14.5q-108 0 -209 62l-189 -187l-69 66l184 184 q-102 109 -102 260q0 63 14 113q14 51 47 102l-96 97zM291 745.5q0 -120.5 86 -206.5q82 -86 205 -86q121 0 206.5 86t85.5 206.5t-86 206.5t-206 86q-119 0 -205 -86t-86 -206.5z" />
<glyph unicode="&#xa5;" d="M43 1362v96h401v-96h-51l78 -137l76 -133l76 -134l79 -137l80 140l78 131l78 131l82 139h-51v96h274v-94h-110l-189 -324l-188 -321v-37h293v-98h-293v-195h293v-96h-291v-197h98v-96h-436v96h100v197h-289v96h289v195h-289v98h289v43l-182 317l-184 320h-111z" />
<glyph unicode="&#xa6;" horiz-adv-x="374" d="M113 338h98v-807h-98v807zM113 655v803h98v-803h-98z" />
<glyph unicode="&#xa7;" horiz-adv-x="892" d="M76 733q0 77 37 135q35 55 118 95q-137 88 -137 241q0 66 33 119q35 57 92 94q57 35 115 51q61 18 131 19q6 0 47 -8q33 -6 66 -19q14 -4 59 -14q27 -6 45 -6q25 0 37 18h88v-280h-96v53q-43 82 -95 117q-55 39 -116 38q-39 0 -70 -12q-37 -14 -57 -33q-23 -18 -37 -53 q-12 -27 -12 -65q0 -63 61 -97q6 -4 131 -49q301 -106 301 -348q0 -78 -33 -131q-37 -59 -90 -90q119 -100 119 -252q0 -74 -39 -131t-104 -94q-49 -23 -121 -39q-66 -14 -146 -15q-27 0 -45 5q-28 6 -61 18q-27 10 -57 14q-33 4 -37 4q-27 0 -39 -18h-88v283h98v-54 q14 -27 43 -67q18 -27 43 -47q55 -43 135 -43t137 47q59 49 60 125q0 39 -35 78q-35 37 -88 61l-61 27l-64 26q-33 12 -63 27l-62 29q-143 87 -143 241zM305 752q0 -72 86 -113h-2q12 -4 25.5 -7t25.5 -7l52 -17q4 -2 14 -5t14 -5q12 -4 29 -8q18 20 33 57q12 31 12 70 q0 113 -205 178q-84 -39 -84 -143z" />
<glyph unicode="&#xa8;" horiz-adv-x="776" d="M86 1227v231h236v-231h-236zM457 1229v231h233v-231h-233z" />
<glyph unicode="&#xa9;" horiz-adv-x="1429" d="M76 670q0 262 182 444q94 90 205 137q113 47 242 47q262 0 448 -184q186 -186 186 -448q0 -264 -186 -451q-184 -182 -450.5 -182t-446.5 186q-180 183 -180 451zM172 666q0 -219 156 -379q158 -158 374 -158q225 0 381 156q158 154 158 381q0 223 -156 378l-12 13 q-4 4 -7 6q-5 2 -7 6v-231h-94v45q-78 133 -203 133q-70 0 -115 -29q-53 -33 -82 -86q-29 -57 -39 -108q-14 -72 -14 -136q0 -117 57 -225v2q70 -119 168 -119q182 0 262 181l76 -45q-16 -59 -53 -103q-41 -47 -96 -76q-100 -51 -213 -51q-104 0 -191 29q-83 28 -135 86 q-96 104 -96 330q0 436 422 436q31 0 116 -21q59 -16 109 -16q23 0 37 16h72q-145 119 -342 119q-221 0 -377 -155.5t-156 -378.5z" />
<glyph unicode="&#xaa;" horiz-adv-x="669" d="M33 983q0 109 82 154v-2q12 8 59 22q39 12 102 25q43 8 78 22.5t49 28.5q0 2 1.5 5t1.5 5v14q0 139 -144 140q-86 0 -104 -127h-74v166q135 37 203 37q138 0 202 -50q74 -61 74 -194q0 -39 -2 -70v-12q0 -2 -1 -7l-1 -5v-25v-16q0 -39 4 -101q4 -51 12 -92h31 q4 0 14.5 -1t16.5 -1v-76h-205q-2 6 -5 18.5t-5 18.5q-4 8 -8 35q-35 -43 -86 -66q-47 -20 -109 -20q-186 0 -186 174zM190 981q0 -98 62 -98q34 0 86 49q47 43 63 80v137q-8 -2 -14 -5t-14 -5t-14.5 -5.5t-14.5 -5.5l-41 -12q-10 -2 -20.5 -6l-20.5 -8q-72 -39 -72 -121z " />
<glyph unicode="&#xab;" horiz-adv-x="886" d="M23 473l352 473h141l-278 -473l69 -117l72 -120l70 -121l67 -115h-141zM371 473l311 473h141l-225 -473l55 -115l58 -120l57 -121l55 -117h-141z" />
<glyph unicode="&#xac;" horiz-adv-x="1107" d="M14 889v96h1000v-520h-96v424h-904z" />
<glyph unicode="&#xad;" horiz-adv-x="827" d="M88 678v96h651v-96h-651z" />
<glyph unicode="&#x2212;" horiz-adv-x="827" d="M88 678v96h651v-96h-651z" />
<glyph unicode="&#xae;" horiz-adv-x="1429" d="M82 641q0 262 182 444q98 94 205 140q109 45 242 45q260 0 448 -185q186 -186 186.5 -448t-186.5 -449q-188 -184 -450 -184q-266 0 -447 186q-180 183 -180 451zM178 637q0 -219 156 -379q158 -158 375 -158q225 0 381 156q158 154 157 381q0 225 -155.5 381t-380.5 156 q-221 0 -377 -156t-156 -381zM403 274v91l50 -3v599h-50v79h357q94 0 160 -57q76 -61 75 -154q0 -41 -14 -71q-16 -37 -37 -60q-18 -18 -49 -39q-23 -16 -55 -22q20 -68 63 -135q43 -72 105 -137h57v-91h-201q-119 176 -190 342h-56v-251h50v-91h-265zM618 698h138 q41 0 71 43v-2q16 25 23 43q6 20 6 47q0 49 -32.5 90.5t-80.5 41.5h-125v-263z" />
<glyph unicode="&#xaf;" horiz-adv-x="827" d="M88 1364v96h651v-96h-651z" />
<glyph unicode="&#x2c9;" horiz-adv-x="827" d="M88 1364v96h651v-96h-651z" />
<glyph unicode="&#xb0;" horiz-adv-x="587" d="M68 1229q0 252 227 252q225 0 225 -252t-225 -252q-227 0 -227 252zM223 1229q0 -147 68 -148q74 0 74 148q0 147 -74 147q-68 0 -68 -147z" />
<glyph unicode="&#xb1;" horiz-adv-x="915" d="M25 170v98h399v359h-399v98h399v369h96v-369h371v-98h-371v-359h371v-98h-866z" />
<glyph unicode="&#xb2;" horiz-adv-x="1040" d="M66 684v27q-4 90 98 186l92 74l92 78q57 49 80 79q33 43 41 70q2 4 3 13.5t1 13.5q2 10 2 30q0 31 -8 50q-10 23 -31 41q-18 18 -47 28q-25 8 -59 8q-66 0 -115 -26q-53 -29 -53 -94l-74 2q0 113 86 170q76 49 182 49q168 0 236 -101v2q18 -23 29 -59q10 -35 10 -63 q0 -82 -103 -168l-94 -76l-94 -80l-86 -72q-20 -18 -45 -43h364v56h76v-195h-583z" />
<glyph unicode="&#xb3;" horiz-adv-x="653" d="M43 690v180h88v-41l2 -4q39 -61 107 -61q63 0 102 39t39 102q0 45 -33 90q-31 49 -69 49h-82v86q76 0 82 3q31 8 57 49q20 33 20 75q0 55 -26 89q-25 37 -76 36.5t-104 -90.5h-93q66 176 219 176q104 0 170 -51q35 -27 56 -69q18 -41 18 -91q0 -111 -80 -165 q106 -63 107 -191q0 -102 -86 -168q-70 -55 -178 -55q-18 0 -33 2q-2 0 -47 10q-51 10 -74 10q-6 0 -12 -10h-74z" />
<glyph unicode="&#xb4;" horiz-adv-x="448" d="M29 1147l176 293l244 -17l-271 -333z" />
<glyph unicode="&#xb5;" horiz-adv-x="1103" d="M-20 -324q100 59 135 240q8 45 14 156q6 98 6 241l2 672h232v-197q0 -35 1 -100t1 -96q6 -246 26 -363q18 -121 142 -120q109 0 129 118q10 57 10 353q0 25 -1 87t-1 101q0 141 -2 217h233q0 -10 1 -30.5t3 -58.5t4 -71q6 -126 19 -319l10 -139q12 -170 14 -191 q2 -4 3.5 -15t1.5 -18q2 -12 6 -45v2q0 -4 -6 -4h112v-96h-315q-2 8 -5 18.5t-5 18.5q-2 12 -7 33q-39 -49 -88 -70q-47 -20 -112 -20q-137 0 -211 83q-18 -369 -187 -448z" />
<glyph unicode="&#x3bc;" horiz-adv-x="1103" d="M-20 -324q100 59 135 240q8 45 14 156q6 98 6 241l2 672h232v-197q0 -35 1 -100t1 -96q6 -246 26 -363q18 -121 142 -120q109 0 129 118q10 57 10 353q0 25 -1 87t-1 101q0 141 -2 217h233q0 -10 1 -30.5t3 -58.5t4 -71q6 -126 19 -319l10 -139q12 -170 14 -191 q2 -4 3.5 -15t1.5 -18q2 -12 6 -45v2q0 -4 -6 -4h112v-96h-315q-2 8 -5 18.5t-5 18.5q-2 12 -7 33q-39 -49 -88 -70q-47 -20 -112 -20q-137 0 -211 83q-18 -369 -187 -448z" />
<glyph unicode="&#xb6;" horiz-adv-x="944" d="M35 1073q0 182 137 289h-2q61 49 139 74q70 23 166 22h377v-96h-100v-1362h-99v1362h-170v-1362h-96v690q-76 12 -137 43q-74 37 -111 74q-104 102 -104 266z" />
<glyph unicode="&#xb7;" horiz-adv-x="399" d="M66 895q0 25 10 51q8 20 28 41q18 18 41 27q33 12 51.5 12t51.5 -12q23 -8 41 -27q20 -20 28 -41q10 -27 10.5 -51.5t-10.5 -50.5q-8 -23 -28.5 -43.5t-40.5 -28.5q-27 -10 -51.5 -10t-51.5 10q-20 8 -40.5 28.5t-28.5 43.5q-10 26 -10 51z" />
<glyph unicode="&#x2219;" horiz-adv-x="399" d="M66 895q0 25 10 51q8 20 28 41q18 18 41 27q33 12 51.5 12t51.5 -12q23 -8 41 -27q20 -20 28 -41q10 -27 10.5 -51.5t-10.5 -50.5q-8 -23 -28.5 -43.5t-40.5 -28.5q-27 -10 -51.5 -10t-51.5 10q-20 8 -40.5 28.5t-28.5 43.5q-10 26 -10 51z" />
<glyph unicode="&#xb8;" horiz-adv-x="440" d="M39 -371l63 -2q72 0 72 103q0 27 -4 37q-6 14 -16 24q-8 6 -35 12l-30.5 7.5t-37.5 7.5l152 241h110l-98 -161q66 -20 78 -25q29 -10 39 -16q68 -43 67 -138q0 -114 -98 -159q-39 -16 -76 -21q-61 -8 -106 -8h-80v98z" />
<glyph unicode="&#xb9;" horiz-adv-x="477" d="M33 690v88h51v592h-51v88h223v-680h43v-88h-266z" />
<glyph unicode="&#xba;" horiz-adv-x="768" d="M57 1079q0 393 312 394q334 0 333.5 -395.5t-333.5 -395.5q-312 0 -312 397zM229 1075q0 -305 149.5 -305t149.5 307q0 106 -30 195q-41 113 -119 112q-76 0 -119 -112q-10 -31 -22 -92q-9 -44 -9 -105z" />
<glyph unicode="&#xbb;" horiz-adv-x="927" d="M59 0l226 471l-25.5 56.5l-28.5 60.5l-27.5 55.5t-31.5 65.5l-57 120l-56 117h142l311 -473l-311 -473h-142zM367 0l278 473q-12 23 -31.5 51.5t-38.5 63.5l-23 43l-20.5 36.5l-25.5 43.5l-72 120l-67 115h143l350 -473l-350 -473h-143z" />
<glyph unicode="&#xbc;" d="M6 0l1079 1458h115l-1073 -1458h-121zM43 1370v88h225l2 -680h43v-88h-268v88h51v152v143v146v151h-53zM559 174v94l440 539h119v-488h117v-145h-117v-174h-182v174h-377zM713 319h223v76v66q0 10 1 31.5t1 33.5v78z" />
<glyph unicode="&#xbd;" horiz-adv-x="1236" d="M113 0h-119l1077 1458h115zM129 690v88h51v592h-51v88h223v-680h43v-88h-266zM621 -21v27q-4 90 98 186l92 74l92 78q57 49 80 79q33 43 41 70q2 4 3 13.5t1 13.5q2 10 2 30q0 31 -8 50q-10 23 -31 41q-18 18 -47 28q-25 8 -59 8q-66 0 -115 -26q-53 -29 -53 -94l-74 2 q0 113 86 170q76 49 182 49q168 0 236 -101v2q18 -23 29 -59q10 -35 10 -63q0 -82 -103 -168l-94 -76l-94 -80l-86 -72q-20 -18 -45 -43h364v56h76v-195h-583z" />
<glyph unicode="&#xbe;" horiz-adv-x="1253" d="M-6 0l1077 1458h115l-1073 -1458h-119zM49 690v180h90v-41l2 -4q39 -61 107 -61q63 0 102 39t39 102q0 41 -32.5 90t-69.5 49h-82v86q76 0 82 3q31 8 57 49q20 33 21 75q0 55 -27 89q-25 37 -78 36q-49 0 -102 -90h-92q66 176 219 176q104 0 170 -51q35 -27 55 -69 q18 -41 18 -91q0 -111 -79 -165q106 -63 106 -191q0 -102 -86 -168q-70 -55 -178 -55q-18 0 -33 2q-2 0 -47 10q-51 10 -74 10q-6 0 -12 -10h-76zM459 174v94l438 539h119v-488h117v-145h-117v-174h-182v174h-375zM610 319h224v76v66q0 10 1 31.5t1 33.5v78z" />
<glyph unicode="&#xbf;" horiz-adv-x="1034" d="M63 -199q0 37 23 82q25 49 66 97q51 57 102 104q47 43 133 111q72 55 105 120q37 74 36 152v104v105h99v-279q0 -139 -86 -243q-39 -43 -82 -86q-20 -23 -80 -86q-82 -88 -82 -175q0 -39 18 -75q20 -41 56 -70q70 -57 159 -57q84 0 146 55q59 57 59 139q0 27 -16 68 q-25 63 -53 117l235 6q45 -92 53 -123q16 -55 17 -84q0 -141 -162 -219q-125 -59 -274 -60q-166 0 -295 64q-177 83 -177 233zM451 754v231h233v-231h-233z" />
<glyph unicode="&#xc0;" d="M53 0v102h106l211 678l213 678h111l436 -1356h104v-102h-434v102h74l-31 97l-28 94l-16.5 47.5t-14.5 46.5l-31 96h-354l-31 -96l-29 -94l-28 -92l-31 -99h76v-102h-303zM432 588h288l-73 225l-72 225l-72 -225zM309 1870l244 18l176 -292l-152 -60z" />
<glyph unicode="&#xc1;" d="M53 0v102h106l211 678l213 678h111l436 -1356h104v-102h-434v102h74l-31 97l-28 94l-16.5 47.5t-14.5 46.5l-31 96h-354l-31 -96l-29 -94l-28 -92l-31 -99h76v-102h-303zM432 588h288l-73 225l-72 225l-72 -225zM510 1577l176 293l244 -17l-271 -333z" />
<glyph unicode="&#xc2;" horiz-adv-x="1296" d="M53 0v102h106l211 678l213 678h111l436 -1356h104v-102h-434v102h74l-31 97l-28 94l-16.5 47.5t-14.5 46.5l-31 96h-354l-31 -96l-29 -94l-28 -92l-31 -99h76v-102h-303zM432 588h288l-73 225l-72 225l-72 -225zM357 1530l211 301h135l211 -301h-125l-152 146l-2 -5l-4 5 l-149 -146h-125z" />
<glyph unicode="&#xc3;" horiz-adv-x="1294" d="M53 0v102h106l211 678l213 678h111l436 -1356h104v-102h-434v102h74l-31 97l-28 94l-16.5 47.5t-14.5 46.5l-31 96h-354l-31 -96l-29 -94l-28 -92l-31 -99h76v-102h-303zM432 588h288l-73 225l-72 225l-72 -225zM307 1511q51 348 207 348q51 0 150 -92h-2q88 -82 112 -82 q86 0 109 164h86q-59 -352 -211 -352q-43 0 -147 94q-88 82 -113 82q-70 0 -113 -162h-78z" />
<glyph unicode="&#xc4;" d="M53 0v102h106l211 678l213 678h111l436 -1356h104v-102h-434v102h74l-31 97l-28 94l-16.5 47.5t-14.5 46.5l-31 96h-354l-31 -96l-29 -94l-28 -92l-31 -99h76v-102h-303zM432 588h288l-73 225l-72 225l-72 -225zM330 1538v231h236v-231h-236zM701 1540v231h233v-231h-233 z" />
<glyph unicode="&#xc5;" horiz-adv-x="1173" d="M53 0v102h106l211 678l213 678h111l436 -1356h104v-102h-434v102h74l-31 97l-28 94l-16.5 47.5t-14.5 46.5l-31 96h-354l-31 -96l-29 -94l-28 -92l-31 -99h76v-102h-303zM432 588h288l-73 225l-72 225l-72 -225zM537 1634q0 -41 28 -71q31 -31 70 -31q45 0 76 29 q33 33 33 73q0 39 -33 72q-29 33 -74 33q-43 0 -72 -33q-28 -29 -28 -72zM438 1638q0 80 60 140q59 57 137 57q84 0 143 -59q61 -58 62 -142q0 -86 -60 -143q-61 -57 -145 -57q-86 0 -141 61q-29 33 -41 68q-15 42 -15 75z" />
<glyph unicode="&#xc6;" horiz-adv-x="1880" d="M29 0v96h104l193 320l186 313l188 313l191 320h-53v96h979v-196h-97v100h-522v-584h324v103h98v-299h-98v100h-324v-586h522v103h97v-199h-951v96h101v447h-455l-66 -115l-65 -109l-66 -108l-67 -115h51v-96h-270zM571 639h396v659l-199 -327z" />
<glyph unicode="&#xc7;" horiz-adv-x="1140" d="M83 741q0 102 10.5 198.5t28.5 152.5q58 194 222 294q145 94 360 95q227 0 375 -66l39 -258h-121q2 109 -74 164t-229 57q-123 -12 -207 -94q-82 -80 -123 -229q-16 -76 -20 -135q-8 -106 -9 -179q0 -151 19 -264q18 -111 49 -182q55 -104 129 -159.5t164 -55.5h8 q277 0 301 221h119l-41 -258q-29 -14 -82 -29q-61 -16 -107 -22q-109 -16 -186 -17q-209 0 -358 93q-160 100 -226 301q-23 72 -30 161q-11 102 -11 211zM414 -373l63 -2q72 0 72 103q0 27 -4 37q-6 14 -16 24q-8 6 -35 12l-30.5 7.5t-37.5 7.5l152 241h110l-98 -161 q66 -20 78 -25q29 -10 39 -16q68 -43 67 -138q0 -114 -98 -159q-39 -16 -76 -21q-61 -8 -106 -8h-80v98z" />
<glyph unicode="&#xc8;" horiz-adv-x="1083" d="M66 0v102h102v1254h-102v102h976l37 -264h-106q-25 162 -115 162h-440v-574h301v101h117v-303h-117v100h-301v-578h477q86 0 111 164h108l-39 -266h-1009zM297 1843l244 18l176 -292l-152 -60z" />
<glyph unicode="&#xc9;" horiz-adv-x="1067" d="M58 0v102h102v1254h-102v102h976l37 -264h-106q-25 162 -115 162h-440v-574h301v101h117v-303h-117v100h-301v-578h477q86 0 111 164h108l-39 -266h-1009zM367 1567l176 293l244 -17l-271 -333z" />
<glyph unicode="&#xca;" horiz-adv-x="1075" d="M66 0v102h102v1254h-102v102h976l37 -264h-106q-25 162 -115 162h-440v-574h301v101h117v-303h-117v100h-301v-578h477q86 0 111 164h108l-39 -266h-1009zM332 1528l211 301h135l211 -301h-125l-152 146l-2 -5l-4 5l-149 -146h-125z" />
<glyph unicode="&#xcb;" horiz-adv-x="1083" d="M66 0v102h102v1254h-102v102h976l37 -264h-106q-25 162 -115 162h-440v-574h301v101h117v-303h-117v100h-301v-578h477q86 0 111 164h108l-39 -266h-1009zM291 1538v231h236v-231h-236zM662 1540v231h233v-231h-233z" />
<glyph unicode="&#xcc;" horiz-adv-x="614" d="M51 0v102h127v1254h-127v102h493v-102h-114v-1254h114v-102h-493zM86 1843l244 18l176 -292l-152 -60z" />
<glyph unicode="&#xcd;" horiz-adv-x="606" d="M51 0v102h127v1254h-127v102h493v-102h-114v-1254h114v-102h-493zM156 1583l176 293l244 -17l-271 -333z" />
<glyph unicode="&#xce;" horiz-adv-x="589" d="M51 0v102h127v1254h-127v102h493v-102h-114v-1254h114v-102h-493zM31 1536l211 301h135l211 -301h-125l-152 146l-2 -5l-4 5l-149 -146h-125z" />
<glyph unicode="&#xcf;" horiz-adv-x="598" d="M51 0v102h127v1254h-127v102h493v-102h-114v-1254h114v-102h-493zM4 1546v231h236v-231h-236zM375 1548v231h233v-231h-233z" />
<glyph unicode="&#xd0;" horiz-adv-x="1277" d="M63 690v96h103v570h-100v102h571q336 0 471 -211q104 -166 104 -518q0 -348 -102 -516q-131 -213 -465 -213h-579v102h100v588h-103zM426 102h158q125 0 178 35q193 131 192 600q0 457 -186 578q-31 22 -80 31q-55 10 -115 10h-147v-570h332v-96h-332v-588z" />
<glyph unicode="&#xd1;" horiz-adv-x="1230" d="M70 0v102h100v1254h-100v102h323l578 -991v889h-101v102h318v-102h-101v-1356h-137l-661 1153v-1051h98v-102h-317zM356 1520q51 348 207 348q51 0 150 -92h-2q88 -82 112 -82q86 0 109 164h86q-59 -352 -211 -352q-43 0 -147 94q-88 82 -113 82q-70 0 -113 -162h-78z " />
<glyph unicode="&#xd2;" horiz-adv-x="1236" d="M72 729q0 754 561 754q565 0 565 -754t-563 -754t-563 754zM324 729q0 -649 311 -649q309 0 309 649t-311 649q-309 0 -309 -649zM352 1851l244 18l176 -292l-152 -60z" />
<glyph unicode="&#xd3;" horiz-adv-x="1253" d="M76 729q0 754 561 754q565 0 565 -754t-563 -754t-563 754zM328 729q0 -649 311 -649q309 0 309 649t-311 649q-309 0 -309 -649zM492 1581l176 293l244 -17l-271 -333z" />
<glyph unicode="&#xd4;" horiz-adv-x="1236" d="M72 729q0 754 561 754q565 0 565 -754t-563 -754t-563 754zM324 729q0 -649 311 -649q309 0 309 649t-311 649q-309 0 -309 -649zM371 1550l211 301h135l211 -301h-125l-152 146l-2 -5l-4 5l-149 -146h-125z" />
<glyph unicode="&#xd5;" horiz-adv-x="1245" d="M76 729q0 754 561 754q565 0 565 -754t-563 -754t-563 754zM328 729q0 -649 311 -649q309 0 309 649t-311 649q-309 0 -309 -649zM296 1524q51 348 207 348q51 0 150 -92h-2q88 -82 112 -82q86 0 109 164h86q-59 -352 -211 -352q-43 0 -147 94q-88 82 -113 82 q-70 0 -113 -162h-78z" />
<glyph unicode="&#xd6;" horiz-adv-x="1230" d="M72 729q0 754 561 754q565 0 565 -754t-563 -754t-563 754zM324 729q0 -649 311 -649q309 0 309 649t-311 649q-309 0 -309 -649zM330 1542v231h236v-231h-236zM701 1544v231h233v-231h-233z" />
<glyph unicode="&#xd7;" horiz-adv-x="1226" d="M47 985h137l430 -428l215 215l213 213h140l-500 -498l121 -118l123 -125l125 -125l118 -119h-137l-418 420l-211 -211l-208 -209h-138l488 487z" />
<glyph unicode="&#xd8;" horiz-adv-x="1353" d="M10 -10l193 241q-41 82 -64 218q-20 123 -20 307q0 727 538 727q145 0 248 -39t172 -119q12 16 26.5 33.5t26.5 34.5q14 20 30 36.5t24 28.5h137l-186 -217q94 -176 94 -512q0 -590 -307 -711q-45 -18 -123 -28t-164 -10q-248 0 -379 163l-53 -67q-45 -55 -53 -66z M352 729q0 -156 23 -285l282 353l281 354q-80 233 -262 233q-188 0 -268 -239q-56 -162 -56 -416zM401 324q74 -250 269 -250q326 0 325 655q0 89 -6 166q-6 74 -18 139l-285 -354z" />
<glyph unicode="&#xd9;" horiz-adv-x="1441" d="M0 1356v102h453v-102h-101v-758q0 -254 39 -350q61 -162 260 -162q299 0 299 520v750h-98v102h328v-102h-103v-754q0 -621 -475 -620q-283 0 -401 182q-98 152 -99 440v752h-102zM496 1849l244 18l176 -292l-152 -60z" />
<glyph unicode="&#xda;" horiz-adv-x="1449" d="M-6 1356v102h453v-102h-101v-758q0 -254 39 -350q61 -162 260 -162q299 0 299 520v750h-98v102h328v-102h-103v-754q0 -621 -475 -620q-283 0 -401 182q-98 152 -99 440v752h-102zM537 1567l176 293l244 -17l-271 -333z" />
<glyph unicode="&#xdb;" horiz-adv-x="1427" d="M-10 1356v102h453v-102h-101v-758q0 -254 39 -350q61 -162 260 -162q299 0 299 520v750h-98v102h328v-102h-103v-754q0 -621 -475 -620q-283 0 -401 182q-98 152 -99 440v752h-102zM453 1538l211 301h135l211 -301h-125l-152 146l-2 -5l-4 5l-149 -146h-125z" />
<glyph unicode="&#xdc;" horiz-adv-x="1441" d="M-4 1356v102h453v-102h-101v-758q0 -254 39 -350q61 -162 260 -162q299 0 299 520v750h-98v102h328v-102h-103v-754q0 -621 -475 -620q-283 0 -401 182q-98 152 -99 440v752h-102zM428 1532v231h236v-231h-236zM799 1534v231h233v-231h-233z" />
<glyph unicode="&#xdd;" horiz-adv-x="1325" d="M55 1356v102h450v-102h-51l135 -252l138 -258l75 129l74 125l74 125l76 131h-52v102h293v-100h-110l-187 -320l-184 -317v-619h96v-102h-452v102h102v312v311l-184 315l-181 316h-112zM508 1575l176 293l244 -17l-271 -333z" />
<glyph unicode="&#xde;" horiz-adv-x="1189" d="M57 0v96h105v1266h-103v96h435v-96h-99v-229h170h168q172 0 291 -113q119 -115 119 -291q0 -43 -8 -78q-10 -49 -23 -76q-102 -250 -379 -249l-340 2v-232h101v-96h-437zM393 424h322q92 0 145 104q41 82 41 203q0 113 -41 201q-49 102 -143 102h-324v-610z" />
<glyph unicode="&#xdf;" horiz-adv-x="1062" d="M-27 0v96h101v961q0 420 383 420q71 0 135 -19q59 -16 119 -53q59 -39 96 -100q33 -53 33 -127q0 -141 -140 -234q-117 -76 -116 -119q0 -41 137 -104q74 -33 127 -66q55 -35 76 -55q113 -111 112.5 -276.5t-110.5 -257.5q-49 -40 -117 -62q-72 -23 -150 -22 q-180 0 -356 88v-70h-330zM303 174l49 6q27 4 45 6q174 -109 254 -108q45 0 72 16q29 16 51 49q16 25 27 68q10 45 10 84q0 156 -104 256q-37 37 -199 133q-111 70 -111 143q0 59 115 162q90 74 90 185q0 82 -35 139q-39 63 -112 63q-145 0 -152 -227v-975z" />
<glyph unicode="&#xe0;" horiz-adv-x="1052" d="M72 242q0 168 127 233q66 33 258 72q157 31 215 86q2 4 3 11t1 11q2 8 2 27q0 233 -246 233q-160 0 -180 -204h-96v243q125 29 198.5 43.5t118.5 14.5q229 0 324 -70q113 -86 112 -309v-420q0 -117 2 -117h117v-96h-307q-33 51 -41 125q-18 -23 -53 -51q-41 -33 -64 -45 q-96 -53 -203 -54q-125 0 -206 66q-82 70 -82 201zM303 248q0 -70 25 -119q27 -57 84 -57q74 0 157 80q45 41 68 71.5t41 77.5v225q-33 -14 -66 -24l-90 -27h2q-68 -23 -94 -33q-37 -14 -61 -34q-66 -54 -66 -160zM209 1374l244 18l176 -292l-152 -60z" />
<glyph unicode="&#xe1;" horiz-adv-x="1046" d="M66 242q0 168 127 233q66 33 258 72q157 31 215 86q2 4 3 11t1 11q2 8 2 27q0 233 -246 233q-160 0 -180 -204h-96v243q125 29 198.5 43.5t118.5 14.5q229 0 324 -70q113 -86 112 -309v-420q0 -117 2 -117h117v-96h-307q-33 51 -41 125q-18 -23 -53 -51q-41 -33 -64 -45 q-96 -53 -203 -54q-125 0 -206 66q-82 70 -82 201zM297 248q0 -70 25 -119q27 -57 84 -57q74 0 157 80q45 41 68 71.5t41 77.5v225q-33 -14 -66 -24l-90 -27h2q-68 -23 -94 -33q-37 -14 -61 -34q-66 -54 -66 -160zM314 1104l176 293l244 -17l-271 -333z" />
<glyph unicode="&#xe2;" horiz-adv-x="1046" d="M72 242q0 168 127 233q66 33 258 72q157 31 215 86q2 4 3 11t1 11q2 8 2 27q0 233 -246 233q-160 0 -180 -204h-96v243q125 29 198.5 43.5t118.5 14.5q229 0 324 -70q113 -86 112 -309v-420q0 -117 2 -117h117v-96h-307q-33 51 -41 125q-18 -23 -53 -51q-41 -33 -64 -45 q-96 -53 -203 -54q-125 0 -206 66q-82 70 -82 201zM303 248q0 -70 25 -119q27 -57 84 -57q74 0 157 80q45 41 68 71.5t41 77.5v225q-33 -14 -66 -24l-90 -27h2q-68 -23 -94 -33q-37 -14 -61 -34q-66 -54 -66 -160zM242 1073l211 301h135l211 -301h-125l-152 146l-2 -5l-4 5 l-149 -146h-125z" />
<glyph unicode="&#xe3;" horiz-adv-x="1046" d="M66 242q0 168 127 233q66 33 258 72q157 31 215 86q2 4 3 11t1 11q2 8 2 27q0 233 -246 233q-160 0 -180 -204h-96v243q125 29 198.5 43.5t118.5 14.5q229 0 324 -70q113 -86 112 -309v-420q0 -117 2 -117h117v-96h-307q-33 51 -41 125q-18 -23 -53 -51q-41 -33 -64 -45 q-96 -53 -203 -54q-125 0 -206 66q-82 70 -82 201zM297 248q0 -70 25 -119q27 -57 84 -57q74 0 157 80q45 41 68 71.5t41 77.5v225q-33 -14 -66 -24l-90 -27h2q-68 -23 -94 -33q-37 -14 -61 -34q-66 -54 -66 -160zM167 1049q51 348 207 348q51 0 150 -92h-2q88 -82 112 -82 q86 0 109 164h86q-59 -352 -211 -352q-43 0 -147 94q-88 82 -113 82q-70 0 -113 -162h-78z" />
<glyph unicode="&#xe4;" horiz-adv-x="1058" d="M66 242q0 168 127 233q66 33 258 72q157 31 215 86q2 4 3 11t1 11q2 8 2 27q0 233 -246 233q-160 0 -180 -204h-96v243q125 29 198.5 43.5t118.5 14.5q229 0 324 -70q113 -86 112 -309v-420q0 -117 2 -117h117v-96h-307q-33 51 -41 125q-18 -23 -53 -51q-41 -33 -64 -45 q-96 -53 -203 -54q-125 0 -206 66q-82 70 -82 201zM297 248q0 -70 25 -119q27 -57 84 -57q74 0 157 80q45 41 68 71.5t41 77.5v225q-33 -14 -66 -24l-90 -27h2q-68 -23 -94 -33q-37 -14 -61 -34q-66 -54 -66 -160zM197 1069v231h236v-231h-236zM568 1071v231h233v-231h-233z " />
<glyph unicode="&#xe5;" horiz-adv-x="1064" d="M74 242q0 168 127 233q66 33 258 72q157 31 215 86q2 4 3 11t1 11q2 8 2 27q0 233 -246 233q-160 0 -180 -204h-96v243q125 29 198.5 43.5t118.5 14.5q229 0 324 -70q113 -86 112 -309v-420q0 -117 2 -117h117v-96h-307q-33 51 -41 125q-18 -23 -53 -51q-41 -33 -64 -45 q-96 -53 -203 -54q-125 0 -206 66q-82 70 -82 201zM305 248q0 -70 25 -119q27 -57 84 -57q74 0 157 80q45 41 68 71.5t41 77.5v225q-33 -14 -66 -24l-90 -27h2q-68 -23 -94 -33q-37 -14 -61 -34q-66 -54 -66 -160zM369 1177q0 -41 28 -71q31 -31 70 -31q45 0 76 29 q33 33 33 73q0 39 -33 72q-29 33 -74 33q-43 0 -72 -33q-28 -29 -28 -72zM270 1181q0 80 60 140q59 57 137 57q84 0 143 -59q61 -58 62 -142q0 -86 -60 -143q-61 -57 -145 -57q-86 0 -141 61q-29 33 -41 68q-15 42 -15 75z" />
<glyph unicode="&#xe6;" horiz-adv-x="1650" d="M61 242q0 166 127 233q66 33 256 72q157 31 215 86l7 22q2 8 2 27q0 233 -246 233q-160 0 -180 -204h-97v243q117 28 197 43q74 14 121 15q238 0 350 -101q20 16 59 39q10 6 76 31q49 18 84 23q57 8 82 8q213 0 330 -140q106 -125 123 -360h-668v-33v-18q0 -375 270 -375 q102 0 179 47q82 51 129 158l84 -53q-31 -76 -72 -119q-49 -53 -109 -84q-57 -29 -116 -43q-70 -16 -134 -17q-137 0 -245 60h2q-109 59 -162 153q-18 -23 -80 -84q-41 -41 -67 -59q-100 -70 -228 -70q-129 0 -207 66q-82 70 -82 201zM295 248q0 -45 4 -66q6 -27 18 -53 q16 -31 35 -43q20 -14 49 -14q33 0 70 18q39 18 80 57q72 66 106 140v231q-12 -6 -61 -22q-12 -4 -43 -12.5t-47 -12.5q-111 -31 -152 -65q-59 -52 -59 -158zM901 610h430q-8 147 -63.5 223t-153.5 76q-115 0 -168 -102q-43 -78 -45 -197z" />
<glyph unicode="&#xe7;" horiz-adv-x="909" d="M62 500q0 512 440 512q40 0 123 -25q70 -20 112 -20q20 0 37 18h88v-280h-98v53q-41 78 -96 119q-51 39 -115 38q-141 0 -209 -143q-51 -109 -51 -285q0 -76 14 -135q14 -63 41 -125q68 -145 179 -145q188 0 274 213l78 -51q-16 -63 -53 -113q-41 -55 -97 -88 q-52 -31 -110 -49q-51 -16 -117 -17q-121 0 -207 39q-84 37 -141 111q-43 59 -68 158q-24 96 -24 215zM252 -371l63 -2q72 0 72 103q0 27 -4 37q-6 14 -16 24q-8 6 -35 12l-30.5 7.5t-37.5 7.5l152 241h110l-98 -161q66 -20 78 -25q29 -10 39 -16q68 -43 67 -138 q0 -114 -98 -159q-39 -16 -76 -21q-61 -8 -106 -8h-80v98z" />
<glyph unicode="&#xe8;" horiz-adv-x="993" d="M66 518q0 217 108 350q119 143 336 144q102 0 189 -35q78 -31 143 -105q109 -127 121 -360h-668v-33v-18q0 -375 270 -375q98 0 179 47q35 20 71.5 65.5t57.5 92.5l86 -53q-29 -72 -74 -119q-47 -49 -109 -84q-57 -29 -116 -43q-70 -16 -131 -17q-117 0 -207 43 q-88 43 -150 119q-52 71 -80 166q-26 92 -26 215zM297 610h430q-8 147 -63.5 223t-153.5 76q-115 0 -168 -102q-16 -29 -31 -86q-10 -45 -14 -111zM209 1380l244 18l176 -292l-152 -60z" />
<glyph unicode="&#xe9;" horiz-adv-x="987" d="M64 518q0 217 108 350q119 143 336 144q102 0 189 -35q78 -31 143 -105q109 -127 121 -360h-668v-33v-18q0 -375 270 -375q98 0 179 47q35 20 71.5 65.5t57.5 92.5l86 -53q-29 -72 -74 -119q-47 -49 -109 -84q-57 -29 -116 -43q-70 -16 -131 -17q-117 0 -207 43 q-88 43 -150 119q-52 71 -80 166q-26 92 -26 215zM295 610h430q-8 147 -63.5 223t-153.5 76q-115 0 -168 -102q-16 -29 -31 -86q-10 -45 -14 -111zM346 1104l176 293l244 -17l-271 -333z" />
<glyph unicode="&#xea;" horiz-adv-x="999" d="M72 518q0 217 108 350q119 143 336 144q102 0 189 -35q78 -31 143 -105q109 -127 121 -360h-668v-33v-18q0 -375 270 -375q98 0 179 47q35 20 71.5 65.5t57.5 92.5l86 -53q-29 -72 -74 -119q-47 -49 -109 -84q-57 -29 -116 -43q-70 -16 -131 -17q-117 0 -207 43 q-88 43 -150 119q-52 71 -80 166q-26 92 -26 215zM303 610h430q-8 147 -63.5 223t-153.5 76q-115 0 -168 -102q-16 -29 -31 -86q-10 -45 -14 -111zM236 1069l211 301h135l211 -301h-125l-152 146l-2 -5l-4 5l-149 -146h-125z" />
<glyph unicode="&#xeb;" horiz-adv-x="987" d="M70 518q0 217 108 350q119 143 336 144q102 0 189 -35q78 -31 143 -105q109 -127 121 -360h-668v-33v-18q0 -375 270 -375q98 0 179 47q35 20 71.5 65.5t57.5 92.5l86 -53q-29 -72 -74 -119q-47 -49 -109 -84q-57 -29 -116 -43q-70 -16 -131 -17q-117 0 -207 43 q-88 43 -150 119q-52 71 -80 166q-26 92 -26 215zM301 610h430q-8 147 -63.5 223t-153.5 76q-115 0 -168 -102q-16 -29 -31 -86q-10 -45 -14 -111zM211 1071v231h236v-231h-236zM582 1073v231h233v-231h-233z" />
<glyph unicode="&#xec;" horiz-adv-x="499" d="M37 985h336v-889h98v-96h-434v96h105v793h-105v96zM-16 1380l244 18l176 -292l-152 -60z" />
<glyph unicode="&#xed;" horiz-adv-x="493" d="M29 985h336v-889h98v-96h-434v96h105v793h-105v96zM95 1100l176 293l244 -17l-271 -333z" />
<glyph unicode="&#xee;" horiz-adv-x="512" d="M47 985h336v-889h98v-96h-434v96h105v793h-105v96zM-22 1071l211 301h135l211 -301h-125l-152 146l-2 -5l-4 5l-149 -146h-125z" />
<glyph unicode="&#xef;" horiz-adv-x="577" d="M65 985h336v-889h98v-96h-434v96h105v793h-105v96zM-16 1067v231h236v-231h-236zM355 1069v231h233v-231h-233z" />
<glyph unicode="&#xf0;" horiz-adv-x="1015" d="M37 451q0 205 131 337q131 135 336 136q70 0 153 -25q-20 61 -57 133q-33 66 -68 115q-20 -12 -40 -27l-43 -24l-240 32q4 4 16 11l29 14l27 16q12 9 18 13l29 16l30 19q4 2 13.5 8l19.5 12l43 25q-33 31 -63 51q-31 23 -58 35q-66 27 -231 47l151 84q231 -31 359 -125 l49 30q12 8 24.5 14.5t24.5 14.5l240 -31l-228 -135q53 -59 111 -162q49 -89 86 -196q72 -211 72 -428t-125 -348q-126 -135 -344 -136q-207 0 -338 132q-127 133 -127 342zM270 451q0 -47 11 -103q10 -51 30 -96q18 -43 56 -86q35 -43 73 -66l35 -18q16 -6 27 -6h6h-4 q111 23 178 143q23 47 41 117q14 57 14 127q0 135 -37 285l-71 -7q-78 82 -123 82q-18 0 -35 -8q-29 -14 -43 -24q-158 -113 -158 -340z" />
<glyph unicode="&#xf1;" horiz-adv-x="1175" d="M57 0v96h100v793h-100v96h334v-53q49 35 110 57q55 20 123 21q195 0 299 -119q100 -117 101 -307v-488h100v-96h-434v96h100v482q0 334 -198 333q-106 0 -201 -112v-703h100v-96h-434zM303 1065q51 348 207 348q51 0 150 -92h-2q88 -82 112 -82q86 0 109 164h86 q-59 -352 -211 -352q-43 0 -147 94q-88 82 -113 82q-70 0 -113 -162h-78z" />
<glyph unicode="&#xf2;" horiz-adv-x="1036" d="M64 494q0 516 491 516q442 0 443 -516q0 -272 -119 -396q-117 -119 -387 -118q-428 0 -428 514zM297 487q0 -164 45 -268q61 -143 189 -143q65 0 110 37q47 39 78 104q23 59 35 123q10 57 10 145q0 166 -45 277q-61 150 -186 149q-68 0 -113 -39q-49 -43 -78 -106 q-18 -49 -33 -127q-12 -70 -12 -152zM270 1376l244 18l176 -292l-152 -60z" />
<glyph unicode="&#xf3;" horiz-adv-x="1007" d="M49 494q0 516 491 516q442 0 443 -516q0 -272 -119 -396q-117 -119 -387 -118q-428 0 -428 514zM282 487q0 -164 45 -268q61 -143 189 -143q65 0 110 37q47 39 78 104q23 59 35 123q10 57 10 145q0 166 -45 277q-61 150 -186 149q-68 0 -113 -39q-49 -43 -78 -106 q-18 -49 -33 -127q-12 -70 -12 -152zM369 1110l176 293l244 -17l-271 -333z" />
<glyph unicode="&#xf4;" horiz-adv-x="1028" d="M56 494q0 516 491 516q442 0 443 -516q0 -272 -119 -396q-117 -119 -387 -118q-428 0 -428 514zM289 487q0 -164 45 -268q61 -143 189 -143q65 0 110 37q47 39 78 104q23 59 35 123q10 57 10 145q0 166 -45 277q-61 150 -186 149q-68 0 -113 -39q-49 -43 -78 -106 q-18 -49 -33 -127q-12 -70 -12 -152zM252 1071l211 301h135l211 -301h-125l-152 146l-2 -5l-4 5l-149 -146h-125z" />
<glyph unicode="&#xf5;" horiz-adv-x="1036" d="M56 494q0 516 491 516q442 0 443 -516q0 -272 -119 -396q-117 -119 -387 -118q-428 0 -428 514zM289 487q0 -164 45 -268q61 -143 189 -143q65 0 110 37q47 39 78 104q23 59 35 123q10 57 10 145q0 166 -45 277q-61 150 -186 149q-68 0 -113 -39q-49 -43 -78 -106 q-18 -49 -33 -127q-12 -70 -12 -152zM206 1061q51 348 207 348q51 0 150 -92h-2q88 -82 112 -82q86 0 109 164h86q-59 -352 -211 -352q-43 0 -147 94q-88 82 -113 82q-70 0 -113 -162h-78z" />
<glyph unicode="&#xf6;" horiz-adv-x="1042" d="M64 494q0 516 491 516q442 0 443 -516q0 -272 -119 -396q-117 -119 -387 -118q-428 0 -428 514zM297 487q0 -164 45 -268q61 -143 189 -143q65 0 110 37q47 39 78 104q23 59 35 123q10 57 10 145q0 166 -45 277q-61 150 -186 149q-68 0 -113 -39q-49 -43 -78 -106 q-18 -49 -33 -127q-12 -70 -12 -152zM217 1071v231h236v-231h-236zM588 1073v231h233v-231h-233z" />
<glyph unicode="&#xf7;" horiz-adv-x="1095" d="M4 506v96h1092v-96h-1092zM412 57v234h233v-234h-233zM412 811v233h233v-233h-233z" />
<glyph unicode="&#xf8;" horiz-adv-x="1073" d="M43 0l113 127q-51 70 -72 158q-25 102 -25 209q0 516 494 516q186 0 297 -99q6 6 16.5 18.5t16.5 18.5l32 37h127l-131 -147q82 -135 82 -344q0 -276 -116.5 -395t-387.5 -119q-164 0 -266 77q-12 -14 -26 -28q-4 -4 -25 -29h-129zM295 487q0 -66 4 -96q10 -78 12 -86 l203 227l201 228q-61 152 -187 151q-68 0 -112.5 -38.5t-75.5 -106.5q-23 -59 -35 -127q-10 -60 -10 -152zM348 199q61 -123 178 -123q65 0 111 37q47 39 78 104q23 59 35 123q12 68 12 145q0 33 -4 86.5t-10 79.5l-199 -225z" />
<glyph unicode="&#xf9;" horiz-adv-x="1153" d="M53 889v96h334v-575q0 -334 199 -334q106 0 201 112v701h-103v96h334v-889h102v-96h-333v53q-43 -31 -111 -55q-55 -20 -125 -21q-195 0 -299 119q-98 111 -98 307v486h-101zM293 1378l244 18l176 -292l-152 -60z" />
<glyph unicode="&#xfa;" horiz-adv-x="1175" d="M59 889v96h334v-575q0 -334 199 -334q106 0 201 112v701h-103v96h334v-889h102v-96h-333v53q-43 -31 -111 -55q-55 -20 -125 -21q-195 0 -299 119q-98 111 -98 307v486h-101zM369 1110l176 293l244 -17l-271 -333z" />
<glyph unicode="&#xfb;" horiz-adv-x="1159" d="M51 889v96h334v-575q0 -334 199 -334q106 0 201 112v701h-103v96h334v-889h102v-96h-333v53q-43 -31 -111 -55q-55 -20 -125 -21q-195 0 -299 119q-98 111 -98 307v486h-101zM271 1067l211 301h135l211 -301h-125l-152 146l-2 -5l-4 5l-149 -146h-125z" />
<glyph unicode="&#xfc;" horiz-adv-x="1144" d="M51 889v96h334v-575q0 -334 199 -334q106 0 201 112v701h-103v96h334v-889h102v-96h-333v53q-43 -31 -111 -55q-55 -20 -125 -21q-195 0 -299 119q-98 111 -98 307v486h-101zM238 1069v231h236v-231h-236zM609 1071v231h233v-231h-233z" />
<glyph unicode="&#xfd;" horiz-adv-x="1054" d="M43 889v96h412v-96h-70l51 -135l52 -129l49 -129q12 -35 26.5 -69l28.5 -69l49 134l51 131l50 131q12 35 26 68.5l27 66.5h-72v96h281v-96h-107l-215 -572l-217 -571q-82 -219 -248 -219q-35 0 -73 8l2 186q74 -37 110 -36q78 0 121 100l47 131l24.5 66.5l24.5 64.5 l-162 422l-163 420h-105zM371 1104l176 293l244 -17l-271 -333z" />
<glyph unicode="&#xfe;" horiz-adv-x="1054" d="M53 -371h103v1733h-103v96h334l-2 -510q49 31 104 45q59 16 121 17q410 0 410 -516q0 -514 -420 -514q-68 0 -117 14q-55 16 -98 45v-410h100v-98h-432v98zM385 170q10 -10 37 -35q14 -12 47 -33q51 -29 100 -28q16 0 23 2q18 6 22 8q172 72 172 403q0 304 -141 406 q-27 20 -57 20q-45 0 -99 -26q-43 -23 -104 -76v-641z" />
<glyph unicode="&#xff;" horiz-adv-x="1046" d="M43 889v96h412v-96h-70l51 -135l52 -129l49 -129q12 -35 26.5 -69l28.5 -69l49 134l51 131l50 131q12 35 26 68.5l27 66.5h-72v96h281v-96h-107l-215 -572l-217 -571q-82 -219 -248 -219q-35 0 -73 8l2 186q74 -37 110 -36q78 0 121 100l47 131l24.5 66.5l24.5 64.5 l-162 422l-163 420h-105zM272 1071v231h236v-231h-236zM643 1073v231h233v-231h-233z" />
<glyph unicode="&#x131;" horiz-adv-x="524" d="M49 985h336v-889h98v-96h-434v96h105v793h-105v96z" />
<glyph unicode="&#x152;" horiz-adv-x="1755" d="M78 729q0 754 561 754q51 0 94 -6.5t86 -18.5h791l37 -264h-109q-25 162 -113 162h-401v-574h260v101h117v-303h-117v100h-260v-578h436q88 0 113 164h108l-39 -266h-839q-27 -10 -84 -18q-39 -6 -78 -7q-563 0 -563 754zM330 729q0 -649 311 -649q33 0 70 10q31 8 61 29 v1222q-59 37 -133 37q-309 0 -309 -649z" />
<glyph unicode="&#x153;" horiz-adv-x="1775" d="M90 494q0 516 492 516q117 0 196.5 -31t132.5 -100q23 25 62 51q37 25 80 43q51 20 94 28q55 10 94 11q102 0 189 -35q74 -31 141 -105q106 -125 123 -360h-668q0 -94 10 -170q10 -70 31 -115q59 -141 229 -141q98 0 179 47q35 20 71 66q34 40 56 92l86 -53 q-31 -76 -72 -119q-49 -53 -109 -84q-55 -29 -118 -43q-70 -16 -132 -17q-217 0 -337 142q-33 -41 -76 -70q-49 -31 -99 -45q-41 -12 -100 -18q-37 -4 -127 -4q-428 0 -428 514zM324 487q0 -80 12 -147q12 -72 35 -121q57 -143 186 -143q65 0 111 37q47 39 77 104 q23 59 35 123q12 68 13 145q0 160 -48 277q-61 150 -188 149q-63 0 -111 -39q-51 -41 -77 -106q-18 -49 -33 -127q-12 -70 -12 -152zM1028 610h428q-10 152 -61 224q-55 76 -156 75q-113 0 -166 -102q-20 -33 -33 -86q-8 -33 -12 -111z" />
<glyph unicode="&#x178;" horiz-adv-x="1083" d="M55 1387v102h450v-102h-51l135 -252l138 -258l75 129l74 125l74 125l76 131h-52v102h293v-100h-110l-187 -320l-184 -317v-619h96v-102h-452v102h102v312v311l-184 315l-181 316h-112zM354 1653v231h236v-231h-236zM725 1655v231h233v-231h-233z" />
<glyph unicode="&#x2c6;" horiz-adv-x="759" d="M119 1157l211 301h135l211 -301h-125l-152 146l-2 -5l-4 5l-149 -146h-125z" />
<glyph unicode="&#x2da;" horiz-adv-x="520" d="M158 1210q0 -41 28 -71q31 -31 70 -31q45 0 76 29q33 33 33 73q0 39 -33 72q-29 33 -74 33q-43 0 -72 -33q-28 -29 -28 -72zM59 1214q0 80 60 140q59 57 137 57q84 0 143 -59q61 -58 62 -142q0 -86 -60 -143q-61 -57 -145 -57q-86 0 -141 61q-29 33 -41 68q-15 42 -15 75 z" />
<glyph unicode="&#x2dc;" horiz-adv-x="788" d="M63 1110q51 348 207 348q51 0 150 -92h-2q88 -82 112 -82q86 0 109 164h86q-59 -352 -211 -352q-43 0 -147 94q-88 82 -113 82q-70 0 -113 -162h-78z" />
<glyph unicode="&#x2000;" horiz-adv-x="944" />
<glyph unicode="&#x2001;" horiz-adv-x="1888" />
<glyph unicode="&#x2002;" horiz-adv-x="944" />
<glyph unicode="&#x2003;" horiz-adv-x="1888" />
<glyph unicode="&#x2004;" horiz-adv-x="628" />
<glyph unicode="&#x2005;" horiz-adv-x="471" />
<glyph unicode="&#x2006;" horiz-adv-x="313" />
<glyph unicode="&#x2007;" horiz-adv-x="313" />
<glyph unicode="&#x2008;" horiz-adv-x="235" />
<glyph unicode="&#x2009;" horiz-adv-x="376" />
<glyph unicode="&#x200a;" horiz-adv-x="104" />
<glyph unicode="&#x2010;" horiz-adv-x="870" d="M88 682v96h694v-96h-694z" />
<glyph unicode="&#x2011;" horiz-adv-x="870" d="M88 682v96h694v-96h-694z" />
<glyph unicode="&#x2012;" horiz-adv-x="870" d="M88 682v96h694v-96h-694z" />
<glyph unicode="&#x2013;" horiz-adv-x="1007" d="M90 682v96h828v-96h-828z" />
<glyph unicode="&#x2014;" horiz-adv-x="1546" d="M98 682v96h1352v-96h-1352z" />
<glyph unicode="&#x2018;" horiz-adv-x="366" d="M53 1018v215q0 186 236 229v-67q-113 -63 -113 -115q0 -29 113 -29v-233h-236z" />
<glyph unicode="&#x2019;" horiz-adv-x="364" d="M78 1014v69q111 61 110 111q0 33 -110 33v231h233v-213q0 -188 -233 -231z" />
<glyph unicode="&#x201a;" horiz-adv-x="364" d="M51 121q0 18 12 51q8 23 27 41q20 20 41 29q27 10 51.5 10t50.5 -10q23 -8 43 -29q18 -18 27 -41q10 -27 10 -51h-37q4 0 9 -2q2 0 7 -4t7 -4q4 -2 12 -11q4 -4 4 -14q0 -29 -6 -72q-6 -39 -33 -90q-18 -37 -75 -82q-49 -41 -131 -55v70q111 61 116 112q0 20 -18 21 q-16 0 -41 10q-14 6 -37 29q-18 18 -27 41q-12 33 -12 51z" />
<glyph unicode="&#x201c;" horiz-adv-x="776" d="M66 1165q0 27 2 45q2 27 12 58q4 14 26 59q14 29 44 57q28 28 67 50q31 16 94 30v-69q-111 -61 -116 -115q-2 -8 3 -12t15 -4q12 0 41 -13q18 -8 39 -28q18 -18 26 -41q10 -27 10.5 -51.5t-10.5 -51.5q-8 -20 -28.5 -40.5t-40.5 -28.5q-27 -10 -51.5 -10.5t-51.5 10.5 q-20 8 -40.5 28.5t-28.5 40.5q-10 27 -10 51h36q-4 0 -8 3q-2 2 -6 4t-6 4q-8 4 -14 10q-4 4 -4 14zM442 1165q0 14 9 72q6 39 32 90q23 41 76 82q49 37 131 55v-69q-111 -61 -117 -115q-2 -8 3.5 -12t15.5 -4q16 0 41 -11q14 -6 37 -28q20 -20 28 -43q10 -27 10.5 -51.5 t-10.5 -51.5q-8 -20 -28.5 -40.5t-40.5 -28.5q-27 -10 -51.5 -10.5t-51.5 10.5q-23 8 -43 28.5t-28 40.5q-10 27 -11 51h39q-4 0 -8 3q-2 2 -7 4t-7 4q-4 2 -12 10q-7 6 -7 14z" />
<glyph unicode="&#x201d;" horiz-adv-x="776" d="M63 1327q0 25 11 51q8 23 28 43q18 18 41 27q27 10 51.5 10t51 -10t43.5 -27q20 -20 28 -43q10 -27 11 -51h-39q4 0 8 -2q2 -2 7 -4t7 -4q4 -2 13 -10q6 -6 6 -13q0 -16 -8 -73q-6 -37 -33 -88q-20 -39 -76 -84q-49 -41 -131 -56v72q111 61 117 113q2 14 -19 18 q-12 0 -41 12q-14 6 -37 29q-20 20 -28 41q-11 26 -11 49zM442 1327q0 25 11 51q8 23 28 43q18 18 41 27q27 10 51.5 10t51.5 -10q23 -8 41 -27q20 -20 28 -43q10 -27 11 -51h-37q4 0 8 -2q2 -2 6 -4t6 -4q8 -4 14 -10q4 -4 5 -13q0 -31 -7 -73q-4 -31 -34 -88 q-23 -43 -74 -84q-49 -41 -131 -56v72q111 61 117 113q2 16 -19 18q-12 0 -41 12q-14 6 -37 29q-16 16 -28 41q-11 20 -11 49z" />
<glyph unicode="&#x201e;" horiz-adv-x="776" d="M452 121q0 18 12 51q8 23 27 41q20 20 41 29q27 10 51.5 10t50.5 -10q23 -8 43 -29q18 -18 27 -41q10 -27 10 -51h-37q4 0 9 -2q2 0 7 -4t7 -4q4 -2 12 -11q4 -4 4 -14q0 -29 -6 -72q-6 -39 -33 -90q-18 -37 -75 -82q-49 -41 -131 -55v70q111 61 116 112q0 20 -18 21 q-16 0 -41 10q-14 6 -37 29q-18 18 -27 41q-12 33 -12 51zM51 121q0 18 12 51q8 23 27 41q20 20 41 29q27 10 51.5 10t50.5 -10q23 -8 43 -29q18 -18 27 -41q10 -27 10 -51h-37q4 0 9 -2q2 0 7 -4t7 -4q4 -2 12 -11q4 -4 4 -14q0 -29 -6 -72q-6 -39 -33 -90q-18 -37 -75 -82 q-49 -41 -131 -55v70q111 61 116 112q0 20 -18 21q-16 0 -41 10q-14 6 -37 29q-18 18 -27 41q-12 33 -12 51z" />
<glyph unicode="&#x2022;" horiz-adv-x="647" d="M61 733q0 109 78 180.5t185 71.5q109 0 186 -72q78 -74 78 -180q0 -109 -78 -182q-78 -72 -186 -72q-106 0 -184.5 71.5t-78.5 182.5z" />
<glyph unicode="&#x2026;" horiz-adv-x="1771" d="M72 115q0 25 10 51q8 20 28.5 40.5t41.5 29.5q27 10 51 10t51 -10q20 -8 40.5 -29t29.5 -41q10 -27 10 -51.5t-10 -51.5q-8 -20 -29 -40.5t-41 -28.5q-27 -10 -51.5 -10t-50.5 10q-20 8 -41 28.5t-29 40.5q-10 27 -10 52zM756 115q0 25 10 51q8 20 28.5 40.5t41.5 29.5 q27 10 51 10t51 -10q20 -8 40.5 -29t29.5 -41q10 -27 10 -51.5t-10 -51.5q-8 -20 -29 -40.5t-41 -28.5q-27 -10 -51.5 -10t-50.5 10q-20 8 -41 28.5t-29 40.5q-10 27 -10 52zM1436 115q0 25 10 51q8 20 28.5 40.5t41.5 29.5q27 10 51 10t51 -10q20 -8 40.5 -29t29.5 -41 q10 -27 10 -51.5t-10 -51.5q-8 -20 -29 -40.5t-41 -28.5q-27 -10 -51.5 -10t-50.5 10q-20 8 -41 28.5t-29 40.5q-10 27 -10 52z" />
<glyph unicode="&#x202f;" horiz-adv-x="376" />
<glyph unicode="&#x2039;" horiz-adv-x="544" d="M31 473l340 473h139l-238 -473l60 -117l59 -120l62 -121l57 -115h-139z" />
<glyph unicode="&#x203a;" horiz-adv-x="512" d="M23 0l235 473q-14 27 -27.5 56.5t-29.5 60.5l-60 121l-61 120l-57 115h139l340 -473l-340 -473h-139z" />
<glyph unicode="&#x2044;" horiz-adv-x="1189" d="M113 0h-119l1077 1458h115z" />
<glyph unicode="&#x205f;" horiz-adv-x="471" />
<glyph unicode="&#x20ac;" horiz-adv-x="1054" d="M51 485v99h90q-2 18 -2 57q0 10 -1 29.5t-1 29.5q0 96 6 177h-92v96h105q20 119 47 190q33 90 76 150q121 170 329 170q68 0 133 -17q63 -16 109 -41q58 -34 92 -92q33 -57 43 -137l-205 -4q-41 174 -153 174q-178 0 -240 -393h334v-96h-346q-6 -68 -6 -72v-72v-74 q0 -27 8 -75h344v-99h-332q61 -389 248 -389q104 0 145 172l203 -6q-8 -78 -43 -137q-33 -57 -90 -90q-51 -29 -108.5 -43.5t-133.5 -14.5q-371 0 -454 508h-105z" />
<glyph unicode="&#x2122;" horiz-adv-x="1982" d="M88 1262v196h739v-194h-96v98h-149v-637h100v-98h-436v98h57h45v637h-162v-100h-98zM922 627v98h106v637h-100v96h329l150 -454l76 227l76 227h327v-96h-100v-637h100v-98h-434v98h96v399l-82 -250l-82 -247h-90l-170 524l-4 -426h101v-98h-299z" />
<glyph unicode="&#xe000;" horiz-adv-x="985" d="M0 985h985v-985h-985v985z" />
<glyph unicode="&#xfb01;" horiz-adv-x="1259" d="M785 39v18h102v871h-102v20h258v-891h98v-18h-356zM834 1315q0 25 10 51q8 20 28.5 40.5t41.5 29.5q27 10 51 10t51 -10q20 -8 40.5 -29t29.5 -41q10 -27 10 -51.5t-10 -50.5q-8 -23 -29 -43q-18 -18 -41 -27q-27 -10 -51.5 -10t-50.5 10q-23 8 -41 27q-20 20 -29 43 q-10 26 -10 51zM39 889v96h129v176q0 305 264 324q55 0 100 -12q55 -14 86 -33q6 0 13 6q8 8 12 16h90v-256h-96v56q-18 63 -49 90q-30 27 -72 27q-4 0 -8 -1q-102 -6 -109 -151v-121v-121h215v-96h-215q0 -68 1 -200t1 -195v-398h138v-96h-471v96h100v793h-129z" />
<glyph unicode="&#xfb02;" horiz-adv-x="1187" d="M717 0v96h100v1266h-100v96h334v-1362h100v-96h-434zM39 889v96h129v176q0 305 264 324q55 0 100 -12q55 -14 86 -33q6 0 13 6q8 8 12 16h90v-256h-96v56q-18 63 -49 90q-30 27 -72 27q-4 0 -8 -1q-102 -6 -109 -151v-121v-121h215v-96h-215q0 -68 1 -200t1 -195v-398 h138v-96h-471v96h100v793h-129z" />
<glyph unicode="&#xfb03;" horiz-adv-x="1933" d="M1459 39v18h102v871h-102v20h258v-891h98v-18h-356zM1508 1315q0 25 10 51q8 20 28.5 40.5t41.5 29.5q27 10 51 10t51 -10q20 -8 40.5 -29t29.5 -41q10 -27 10 -51.5t-10 -50.5q-8 -23 -29 -43q-18 -18 -41 -27q-27 -10 -51.5 -10t-50.5 10q-23 8 -41 27q-20 20 -29 43 q-10 26 -10 51zM713 889v96h129v176q0 305 264 324q55 0 100 -12q55 -14 86 -33q6 0 13 6q8 8 12 16h90v-256h-96v56q-18 63 -49 90q-30 27 -72 27q-4 0 -8 -1q-102 -6 -109 -151v-121v-121h215v-96h-215q0 -68 1 -200t1 -195v-398h138v-96h-471v96h100v793h-129zM39 889v96 h129v176q0 305 264 324q55 0 100 -12q55 -14 86 -33q6 0 13 6q8 8 12 16h90v-256h-96v56q-18 63 -49 90q-30 27 -72 27q-4 0 -8 -1q-102 -6 -109 -151v-121v-121h215v-96h-215q0 -68 1 -200t1 -195v-398h138v-96h-471v96h100v793h-129z" />
<glyph unicode="&#xfb04;" horiz-adv-x="1861" d="M1391 0v96h100v1266h-100v96h334v-1362h100v-96h-434zM713 889v96h129v176q0 305 264 324q55 0 100 -12q55 -14 86 -33q6 0 13 6q8 8 12 16h90v-256h-96v56q-18 63 -49 90q-30 27 -72 27q-4 0 -8 -1q-102 -6 -109 -151v-121v-121h215v-96h-215q0 -68 1 -200t1 -195v-398 h138v-96h-471v96h100v793h-129zM39 889v96h129v176q0 305 264 324q55 0 100 -12q55 -14 86 -33q6 0 13 6q8 8 12 16h90v-256h-96v56q-18 63 -49 90q-30 27 -72 27q-4 0 -8 -1q-102 -6 -109 -151v-121v-121h215v-96h-215q0 -68 1 -200t1 -195v-398h138v-96h-471v96h100v793 h-129z" />
</font>
</defs>
</svg>
